<svg
  width="851"
  height="686"
  viewBox="0 0 851 686"
  fill="none"
  xmlns="http://www.w3.org/2000/svg"
>
<path
    opacity="0.1"
    d="M416.919 26.3493C377.083 11.1995 334.987 -1.45555 292.014 0.135369C228.829 2.4675 168.176 38.019 138.473 90.2209C113.271 134.45 110.162 186.29 99.3054 235.374C85.9453 295.838 60.3099 353.318 32.9389 409.516C18.2411 439.707 2.72965 470.549 0.316157 503.642C-3.02838 549.588 20.4466 595.372 57.2637 625.934C94.0807 656.496 142.974 672.622 192.048 676.138C218.163 678.009 245.453 676.274 268.647 664.903C293.189 652.871 311.078 631.132 335.719 619.272C358.552 608.28 385.263 606.744 410.899 608.172C444.37 610.036 477.411 616.609 509.047 627.697C544.879 640.28 578.198 658.512 613.903 671.275C649.608 684.039 689.598 691.162 726.135 680.513C760.484 670.507 787.602 646.209 812.053 621.604C852.034 581.444 888.68 538.096 921.627 491.99C943.692 461.067 964.229 428.444 973.983 392.404C992.64 323.498 966.968 245.76 910.03 198.701C862.854 159.715 799.543 142.793 737.569 132.525C681.056 123.16 615.711 122.582 563.69 98.1755C514.082 74.8722 468.94 46.1453 416.919 26.3493Z"
    fill="#505F98"
  />
<path
    d="M571.807 559.523V592.362H581.144L579.337 557.109L571.807 559.523Z"
    fill="#AAABB0"
  />
<path
    d="M431.544 552.897V585.737H440.891L439.083 550.483L431.544 552.897Z"
    fill="#AAABB0"
  />
<path
    d="M594.703 504.69C594.703 501.36 592.006 498.661 588.679 498.661C585.351 498.661 582.654 501.36 582.654 504.69V551.089C582.654 554.419 585.351 557.118 588.679 557.118C592.006 557.118 594.703 554.419 594.703 551.089V504.69Z"
    fill="#AAABB0"
  />
<path
    d="M440.132 491.728C440.132 488.398 437.434 485.699 434.107 485.699C430.78 485.699 428.082 488.398 428.082 491.728V551.08C428.082 554.41 430.78 557.109 434.107 557.109C437.434 557.109 440.132 554.41 440.132 551.08V491.728Z"
    fill="#AAABB0"
  />
<path
    d="M610.079 148.841C610.079 148.841 622.129 143.715 623.937 148.841C625.744 153.966 626.648 198.258 626.648 198.258H615.196L610.079 148.841Z"
    fill="#AAABB0"
  />
<path
    d="M478.106 148.841C478.106 148.841 466.047 143.715 464.239 148.841C462.432 153.966 461.528 198.258 461.528 198.258H472.98L478.106 148.841Z"
    fill="#AAABB0"
  />
<path
    d="M479.905 104.846L478.097 141.609H486.232V103.942L479.905 104.846Z"
    fill="#AAABB0"
  />
<path
    d="M472.98 198.259L475.394 145.225C475.394 145.225 474.49 133.474 503.108 137.09C531.727 140.706 615.503 147.937 615.503 147.937V198.259H472.98Z"
    fill="#33323D"
  />
<path
    d="M587.481 477.572L582.961 558.619C582.961 558.619 516.667 595.381 436.218 560.427L443.449 475.159L587.481 477.572Z"
    fill="#33323D"
  />
<path
    d="M524.504 158.476L526.005 210.904H619.417L613.993 141.609L524.504 158.476Z"
    fill="#444053"
  />
<path d="M533.996 442.916H446.007V554.397H533.996V442.916Z" fill="#4C4981" />
<path
    d="M501.608 488.419C501.608 488.419 514.263 478.476 516.369 481.486C518.475 484.496 508.848 497.459 504.925 495.949C501.002 494.44 501.608 488.419 501.608 488.419Z"
    fill="#FFB9B9"
  />
<path d="M852.838 195.24H275.255V484.497H852.838V195.24Z" fill="#504F60" />
<path
    d="M473.279 102.74C473.279 102.74 468.759 60.5541 473.279 55.4379C477.798 50.3216 553.728 1.79874 623.937 58.7462C623.937 58.7462 630.562 59.0536 629.36 74.113C628.652 83.6443 628.7 93.2168 629.505 102.74C629.505 102.74 478.404 113.588 473.279 102.74Z"
    fill="#33323D"
  />
<path
    opacity="0.1"
    d="M473.279 102.74C473.279 102.74 468.759 60.5541 473.279 55.4379C477.798 50.3216 553.728 1.79874 623.937 58.7462C623.937 58.7462 630.562 59.0536 629.36 74.113C628.652 83.6443 628.7 93.2168 629.505 102.74C629.505 102.74 478.404 113.588 473.279 102.74Z"
    fill="black"
  />
<path
    d="M473.279 108.164C473.279 108.164 468.759 65.9777 473.279 60.8614C477.798 55.7452 553.728 7.22233 623.937 64.1698C623.937 64.1698 630.562 64.4772 629.36 79.5366C628.652 89.0679 628.7 98.6404 629.505 108.164C629.505 108.164 478.404 119.011 473.279 108.164Z"
    fill="#33323D"
  />
<path
    d="M632.072 88.8831C632.072 88.8831 636.89 106.962 635.389 109.972C633.889 112.982 634.16 121.424 634.16 121.424C634.16 121.424 634.485 126.848 632.072 127.445C629.658 128.041 627.552 128.349 629.505 130.156C631.457 131.964 629.505 134.676 629.505 134.676C629.505 134.676 628.447 138.897 629.505 141.609C630.562 144.321 623.322 145.451 623.937 148.841C624.551 152.23 626.576 161.794 623.937 162.101C621.297 162.409 624.84 174.151 622.463 174.151C620.086 174.151 618.395 195.239 618.395 195.239C618.395 195.239 601.673 181.084 590.527 184.998C590.527 184.998 591.431 173.247 595.047 169.025C598.663 164.804 597.569 153.966 597.569 153.966L615.503 100.028L632.072 88.8831Z"
    fill="#4C4981"
  />
<path
    d="M542.583 338.168C538.669 342.498 534.448 319.376 534.448 319.376C534.448 319.376 523.302 334.742 516.071 324.501C511.063 317.405 515.013 297.302 517.879 285.632C519.162 280.443 520.247 276.918 520.247 276.918L536.518 274.206C536.518 274.206 536.572 277.75 536.933 282.052C537.422 287.865 538.479 295.078 540.73 296.805C544.698 299.797 546.506 333.802 542.583 338.168Z"
    fill="#AE6E79"
  />
<path
    opacity="0.1"
    d="M534.149 67.487C534.149 67.487 505.82 67.1887 498.896 82.2481C491.972 97.3076 491.665 102.442 488.953 104.846C486.241 107.251 518.475 119.915 518.475 119.915L519.985 171.737C519.985 171.737 526.312 165.328 536.554 168.23C546.795 171.131 559.758 168.23 559.758 168.23C559.758 168.23 559.152 167.136 567.595 168.23C576.037 169.324 602.848 155.168 602.848 155.168C602.848 155.168 603.291 132.498 602.694 127.671C602.098 122.844 621.821 87.3734 621.821 87.3734C621.821 87.3734 637.188 72.6122 621.225 67.487C621.225 67.487 615.575 58.972 601.04 59.0533C586.505 59.1347 534.149 67.487 534.149 67.487Z"
    fill="black"
  />
<path
    d="M534.149 66.5832C534.149 66.5832 505.82 66.2849 498.896 81.3443C491.972 96.4038 491.665 101.538 488.953 103.943C486.241 106.347 518.475 119.011 518.475 119.011L519.985 170.833C519.985 170.833 526.312 164.424 536.554 167.326C546.795 170.228 559.758 167.326 559.758 167.326C559.758 167.326 559.152 166.232 567.595 167.326C576.037 168.42 602.848 154.264 602.848 154.264C602.848 154.264 613.388 137.09 612.791 132.272C612.195 127.454 633.88 90.9892 633.88 90.9892C633.88 90.9892 637.197 71.7084 621.225 66.5832C621.225 66.5832 615.575 58.0682 601.04 58.1495C586.505 58.2309 534.149 66.5832 534.149 66.5832Z"
    fill="#4C4981"
  />
<path
    opacity="0.1"
    d="M537.006 282.026C530.796 280.091 521.051 284.358 517.951 285.641C519.234 280.453 520.319 276.927 520.319 276.927L536.59 274.216C536.59 274.216 536.617 277.759 537.006 282.026Z"
    fill="black"
  />
<path
    d="M497.685 103.942H488.953C488.953 103.942 487.145 122.328 488.953 127.752C490.761 133.175 491.665 132.389 491.059 136.402C490.453 140.416 495.28 146.563 495.28 146.563C495.28 146.563 495.877 161.712 498.896 167.353C501.915 172.993 495.579 198.285 495.579 198.285C497.307 202.652 499.864 206.642 503.108 210.036C508.234 215.153 510.945 234.135 509.436 241.367C507.926 248.598 513.657 251.31 513.657 251.31C513.657 251.31 516.071 285.063 516.975 285.063C517.879 285.063 535.351 276.023 540.775 283.851L536.554 252.819L536.861 192.862C536.861 192.862 531.13 185.323 534.149 178.697C537.168 172.071 531.736 156.397 531.736 156.397L523.899 121.451L497.685 103.942Z"
    fill="#4C4981"
  />
<path
    d="M443.449 580.313C443.449 580.313 430.794 577.601 430.496 580.313C430.197 583.025 415.427 610.748 433.813 618.884C452.199 627.019 501.301 644.492 581.154 621.894C581.154 621.894 586.27 623.701 585.068 612.556C583.865 601.411 583.865 589.054 583.865 589.054C583.865 589.054 571.807 585.736 562.768 586.948C553.728 588.159 475.087 604.122 443.449 580.313Z"
    fill="#33323D"
  />
<path
    opacity="0.1"
    d="M443.449 580.313C443.449 580.313 430.794 577.601 430.496 580.313C430.197 583.025 415.427 610.748 433.813 618.884C452.199 627.019 501.301 644.492 581.154 621.894C581.154 621.894 586.27 623.701 585.068 612.556C583.865 601.411 583.865 589.054 583.865 589.054C583.865 589.054 571.807 585.736 562.768 586.948C553.728 588.159 475.087 604.122 443.449 580.313Z"
    fill="black"
  />
<path
    d="M443.449 576.697C443.449 576.697 430.794 573.985 430.496 576.697C430.197 579.409 415.427 607.132 433.813 615.268C452.199 623.403 501.301 640.876 581.154 618.278C581.154 618.278 586.27 620.086 585.068 608.94C583.865 597.795 583.865 585.438 583.865 585.438C583.865 585.438 571.807 582.121 562.768 583.332C553.728 584.543 475.087 600.507 443.449 576.697Z"
    fill="#33323D"
  />
<path
    d="M517.246 114.771C516.468 119.192 514.706 123.44 514.435 127.915C514.163 132.389 515.89 137.478 520.021 139.232C521.174 139.576 522.29 140.03 523.356 140.588C524.947 141.663 525.598 143.688 525.933 145.586C526.377 148.037 526.483 150.537 526.249 153.017C526.023 155.512 525.49 158.196 526.719 160.375C528.879 164.234 534.511 163.665 538.795 162.58L537.322 173.997C537.205 174.901 537.132 175.922 537.792 176.537C538.104 176.757 538.456 176.911 538.829 176.992C539.202 177.073 539.587 177.078 539.962 177.007C543.686 176.772 547.518 176.257 550.709 174.295C553.9 172.334 556.278 168.682 555.672 165.003C554.967 160.736 550.556 157.347 551.152 153.062C551.613 149.744 554.858 147.638 556.992 145.089C560.851 140.425 561.059 133.338 558.031 128.059C555.003 122.78 549.155 119.508 543.134 118.911C539.799 118.577 536.328 118.984 533.191 117.827C532.1 117.426 531.116 116.779 530.316 115.936C529.516 115.092 528.923 114.075 528.581 112.964"
    fill="#444053"
  />
<path
    d="M412.119 516.739L415.274 509.87C415.274 509.87 432.304 494.006 436.218 492.894C440.132 491.782 456.104 486.937 458.518 486.937C460.931 486.937 504.925 484.523 504.925 484.523L510.041 496.582L454.83 508.704L436.218 522.262L412.119 516.739Z"
    fill="#767D9F"
  />
<path
    d="M544.771 331.733L541.887 353.924L540.775 362.466L527.822 364.274C527.822 364.274 526.421 361.273 524.441 356.663C518.43 342.67 507.113 313.817 513.675 308.836C522.398 302.201 524.522 324.203 524.522 324.203L534.466 319.376L544.771 331.733Z"
    fill="#FFB9B9"
  />
<path d="M542.61 373.015H477.193V471.842H542.61V373.015Z" fill="white" />
<path
    opacity="0.1"
    d="M542.61 373.015H477.193V471.842H542.61V373.015Z"
    fill="black"
  />
<path
    d="M572.012 378.366L507.298 368.798L492.844 466.562L557.558 476.13L572.012 378.366Z"
    fill="white"
  />
<path
    d="M546.699 383.047L513.39 378.122L505.951 428.439L539.26 433.364L546.699 383.047Z"
    fill="#505F98"
  />
<path
    d="M542.735 448.725L502.38 442.758L500.764 453.686L541.12 459.652L542.735 448.725Z"
    fill="#505F98"
  />
<path
    opacity="0.1"
    d="M559.758 123.675C580.64 123.675 597.569 106.746 597.569 85.8638C597.569 64.9812 580.64 48.0525 559.758 48.0525C538.875 48.0525 521.946 64.9812 521.946 85.8638C521.946 106.746 538.875 123.675 559.758 123.675Z"
    fill="black"
  />
<path
    d="M559.758 122.771C580.64 122.771 597.569 105.843 597.569 84.96C597.569 64.0774 580.64 47.1487 559.758 47.1487C538.875 47.1487 521.946 64.0774 521.946 84.96C521.946 105.843 538.875 122.771 559.758 122.771Z"
    fill="#AE6E79"
  />
<path
    d="M528.581 112.982C528.324 112.008 528.417 110.975 528.843 110.062C530.28 107.07 534.375 106.808 537.693 106.962C545.494 107.323 554.054 107.368 560.155 102.442C562.686 100.417 565.516 95.3281 569.195 96.2953C572.467 97.154 573.832 101.592 577.24 102.578C579.707 103.292 582.265 102.153 584.778 101.674C588.394 100.96 592.1 101.556 595.77 101.583C599.44 101.61 603.426 100.914 605.93 98.2297C609.311 94.614 608.76 88.9644 608.461 84.0109C608.09 77.6122 608.525 71.1923 609.754 64.9019C610.983 58.6467 612.872 51.6503 609.419 46.29C606.129 41.1828 599.314 39.7817 594.658 35.8677C590.301 32.252 587.996 26.4578 583.395 23.1042C577.601 18.8829 569.728 19.4885 562.605 20.2207L547.148 21.8658C543.161 22.2907 539.012 22.7697 535.731 25.1471C529.81 29.4317 528.997 38.3354 523.393 43.0268C520.898 45.1058 517.707 46.1363 514.859 47.6911C512.012 49.2458 509.264 51.7045 508.939 54.9225C508.668 57.6343 510.132 60.1382 510.846 62.7505C512.536 68.9876 509.897 75.4055 508.207 81.6878C506.516 87.9701 506.191 95.5993 511.099 99.7664C512.093 100.616 513.25 101.267 514.218 102.153C517.535 105.181 517.987 110.288 517.219 114.699"
    fill="#444053"
  />
<path
    d="M562.84 132.19C563.339 132.19 563.744 131.179 563.744 129.93C563.744 128.682 563.339 127.671 562.84 127.671C562.341 127.671 561.936 128.682 561.936 129.93C561.936 131.179 562.341 132.19 562.84 132.19Z"
    fill="#444053"
  />
<path
    d="M562.84 141.609C563.339 141.609 563.744 140.597 563.744 139.349C563.744 138.101 563.339 137.089 562.84 137.089C562.341 137.089 561.936 138.101 561.936 139.349C561.936 140.597 562.341 141.609 562.84 141.609Z"
    fill="#444053"
  />
<path
    d="M542.791 338.105C543.758 336.993 544.4 334.137 544.77 330.367L533.996 316.935C533.996 316.935 538.56 342.977 542.791 338.105Z"
    fill="#AE6E79"
  />
<path
    opacity="0.1"
    d="M554.94 560.128C554.94 560.128 537.259 587.463 482.02 584.534C429.981 581.822 404.58 556.214 405.791 547.175C407.003 538.136 402.474 516.134 413.619 509.806C420.083 506.146 428.589 508.315 434.591 510.792C436.664 511.634 438.934 511.871 441.137 511.476C443.34 511.081 445.386 510.069 447.038 508.559C452.525 503.615 462.757 498.046 478.91 502.43C480.989 502.985 483.181 502.944 485.238 502.313C491.963 500.261 507.972 496.699 519.587 504.609C521.423 505.874 523.581 506.591 525.809 506.676C528.037 506.761 530.243 506.21 532.17 505.088L532.332 504.988C537.756 501.671 563.066 533.01 563.066 533.01C563.066 533.01 564.277 557.118 554.94 560.128Z"
    fill="black"
  />
<path
    d="M554.94 561.032C554.94 561.032 537.259 588.367 482.02 585.438C429.981 582.726 404.58 557.118 405.791 548.079C407.003 539.039 402.474 517.038 413.619 510.71C420.083 507.049 428.589 509.219 434.591 511.696C436.664 512.538 438.934 512.775 441.137 512.38C443.34 511.985 445.386 510.973 447.038 509.463C452.525 504.518 462.757 498.95 478.91 503.334C480.989 503.889 483.181 503.848 485.238 503.217C491.963 501.165 507.972 497.603 519.587 505.513C521.423 506.778 523.581 507.495 525.809 507.58C528.037 507.665 530.243 507.114 532.17 505.992L532.332 505.892C537.756 502.575 563.066 533.914 563.066 533.914C563.066 533.914 564.277 558.022 554.94 561.032Z"
    fill="#767D9F"
  />
<path
    opacity="0.1"
    d="M482.02 571.735C501.909 571.735 518.032 555.611 518.032 535.722C518.032 515.833 501.909 499.709 482.02 499.709C462.131 499.709 446.007 515.833 446.007 535.722C446.007 555.611 462.131 571.735 482.02 571.735Z"
    fill="black"
  />
<path
    d="M482.02 572.639C501.909 572.639 518.032 556.515 518.032 536.626C518.032 516.737 501.909 500.614 482.02 500.614C462.131 500.614 446.007 516.737 446.007 536.626C446.007 556.515 462.131 572.639 482.02 572.639Z"
    fill="#FFB9B9"
  />
<path
    d="M471.697 505.495C467.918 506.516 464.194 508.469 462.35 511.678C461.238 513.612 460.85 515.935 459.241 517.544C456.963 519.831 453.121 519.876 450.039 521.16C446.956 522.443 444.922 526.963 447.942 528.391C444.796 528.554 442.464 531.456 442.075 534.339C441.686 537.223 442.78 540.097 443.838 542.845C447.291 551.74 451.006 561.023 458.617 567.351C471.019 577.674 489.712 577.194 506.372 576.101C507.733 576.146 509.082 575.834 510.286 575.197C512.093 574.004 512.319 571.717 512.618 569.71C513.874 561.141 518.52 553.358 521.558 545.177C524.595 536.997 525.842 527.388 520.726 520.148C513.196 509.409 484.37 502.06 471.697 505.495Z"
    fill="#B96B6B"
  />
<path
    opacity="0.1"
    d="M541.887 353.924L540.775 362.466L527.822 364.274C527.822 364.274 526.421 361.273 524.441 356.663L541.679 353.427L541.887 353.924Z"
    fill="black"
  />
<path
    d="M555.536 542.655L563.075 533.914L561.565 485.708C562.308 482.23 562.812 478.705 563.075 475.159C563.373 470.034 559.306 458.59 559.306 458.59C559.937 456.299 560.794 454.077 561.864 451.955C563.672 448.339 559.315 440.204 559.315 440.204C559.315 440.204 552.824 419.115 555.536 408.567C558.248 398.018 554.876 391.998 554.876 391.998C554.876 391.998 552.228 380.246 552.526 375.429C552.824 370.611 546.497 366.082 546.497 366.082L541.679 354.331L522.398 357.947V398.623C522.398 398.623 523.6 437.492 522.398 445.031C521.196 452.57 524.803 459.792 524.803 459.792C524.803 459.792 522.697 470.938 524.504 475.159C526.312 479.38 529.928 489.622 529.928 489.622C529.257 493.282 529.464 497.049 530.534 500.614C532.341 505.893 530.534 508.903 530.534 508.903L555.536 542.655Z"
    fill="#767D9F"
  />
<g opacity="0.1">
<path
      opacity="0.1"
      d="M609.781 61.9279C608.762 67.2191 608.304 72.6033 608.416 77.9907C608.494 73.511 608.962 69.0467 609.817 64.6487C610.613 60.6352 611.625 56.3145 611.408 52.3101C611.075 55.5479 610.531 58.7606 609.781 61.9279Z"
      fill="black"
    />
<path
      opacity="0.1"
      d="M514.245 99.2421C513.278 98.3381 512.121 97.7054 511.126 96.8467C508.487 94.5959 507.375 91.3327 507.158 87.8074C506.896 92.327 507.818 96.702 511.126 99.5584C512.121 100.417 513.278 101.068 514.245 101.954C516.267 103.955 517.439 106.658 517.517 109.502C517.779 105.705 517.011 101.755 514.245 99.2421Z"
      fill="black"
    />
<path
      opacity="0.1"
      d="M511.361 65.4894C511.519 63.5802 511.354 61.658 510.873 59.8037C510.349 57.8693 509.409 55.9801 509.065 54.0366C509.065 54.2445 508.993 54.4615 508.966 54.6875C508.704 57.3992 510.168 59.9031 510.873 62.5155C511.133 63.4884 511.296 64.4845 511.361 65.4894Z"
      fill="black"
    />
<path
      opacity="0.1"
      d="M605.957 95.2558C603.454 97.9676 599.467 98.6365 595.797 98.6094C592.127 98.5823 588.412 97.9857 584.805 98.7088C582.293 99.215 579.734 100.345 577.267 99.6128C573.859 98.6275 572.494 94.1892 569.231 93.3305C565.516 92.3542 562.686 97.4433 560.192 99.4681C554.09 104.349 545.53 104.304 537.729 103.988C534.411 103.834 530.317 104.096 528.888 107.097C528.453 108.007 528.36 109.044 528.626 110.017L517.58 111.753C517.539 112.662 517.439 113.568 517.282 114.464L528.626 112.656C528.36 111.683 528.453 110.647 528.888 109.737C530.317 106.736 534.411 106.474 537.729 106.627C545.53 106.989 554.09 107.034 560.192 102.108C562.723 100.083 565.552 94.9937 569.231 95.9699C572.494 96.8196 573.859 101.267 577.267 102.252C579.734 102.957 582.293 101.827 584.805 101.348C588.421 100.625 592.127 101.222 595.797 101.249C599.467 101.276 603.454 100.58 605.957 97.8953C608.461 95.2106 608.823 91.2062 608.669 87.3013C608.561 90.3294 607.937 93.1316 605.957 95.2558Z"
      fill="black"
    />
</g>
<g opacity="0.1">
<path
      opacity="0.1"
      d="M522.281 138.671C521.216 138.111 520.099 137.657 518.945 137.316C516.984 136.424 515.426 134.831 514.579 132.85C515.257 135.969 516.975 138.807 519.849 140.027C521.003 140.368 522.12 140.823 523.185 141.383C523.865 141.864 524.415 142.507 524.785 143.254C524.423 141.483 523.763 139.675 522.281 138.671Z"
      fill="black"
    />
<path
      opacity="0.1"
      d="M537.72 160.664C533.553 161.722 528.111 162.273 525.824 158.739C525.895 159.59 526.141 160.418 526.547 161.17C528.5 164.65 533.272 164.533 537.331 163.674L537.72 160.664Z"
      fill="black"
    />
<path
      opacity="0.1"
      d="M554.605 163.141C555.184 166.811 552.797 170.472 549.634 172.397C546.47 174.322 542.61 174.856 538.886 175.109C538.294 175.186 537.692 175.117 537.132 174.91C536.963 175.292 536.908 175.715 536.975 176.128C537.042 176.541 537.228 176.925 537.51 177.234C537.792 177.543 538.157 177.763 538.562 177.867C538.967 177.971 539.394 177.955 539.79 177.821C543.514 177.586 547.347 177.07 550.538 175.109C553.728 173.147 556.115 169.495 555.5 165.817C555.327 164.888 555.025 163.987 554.605 163.141Z"
      fill="black"
    />
<path
      opacity="0.1"
      d="M558.619 130.419C559.17 132.616 559.213 134.911 558.743 137.128C558.273 139.345 557.303 141.425 555.907 143.209C553.774 145.795 550.529 147.865 550.068 151.182C549.914 152.707 550.229 154.243 550.971 155.584C550.89 155.024 550.89 154.454 550.971 153.894C551.432 150.576 554.678 148.47 556.811 145.921C560.318 141.682 560.806 135.436 558.619 130.419Z"
      fill="black"
    />
</g>
<g opacity="0.1">
<path
      opacity="0.1"
      d="M450.048 522.552C453.121 521.277 456.963 521.232 459.25 518.936C460.859 517.327 461.247 515.004 462.359 513.079C464.167 509.861 467.918 507.917 471.697 506.896C484.352 503.461 513.205 510.801 520.726 521.44C522.93 524.659 524.132 528.459 524.179 532.36C524.469 527.856 523.257 523.383 520.735 519.641C513.214 509.002 484.388 501.662 471.706 505.097C467.927 506.118 464.203 508.062 462.368 511.28C461.256 513.205 460.868 515.528 459.259 517.137C456.972 519.424 453.13 519.47 450.057 520.753C447.716 521.72 445.98 524.577 446.613 526.493C446.865 525.626 447.303 524.825 447.896 524.144C448.489 523.463 449.223 522.92 450.048 522.552Z"
      fill="black"
    />
<path
      opacity="0.1"
      d="M442.093 535.686C442.473 532.793 444.805 529.901 447.96 529.738C447.628 529.6 447.332 529.389 447.093 529.122C446.854 528.855 446.677 528.537 446.577 528.192C445.377 528.638 444.321 529.404 443.525 530.406C442.728 531.408 442.221 532.609 442.057 533.878C441.971 534.614 441.971 535.357 442.057 536.093C442.093 535.957 442.093 535.822 442.093 535.686Z"
      fill="black"
    />
</g>
<path d="M633.572 208.112H551.315V315.381H633.572V208.112Z" fill="white" />
<path
    opacity="0.1"
    d="M633.572 208.112H551.315V315.381H633.572V208.112Z"
    fill="black"
  />
<path
    d="M665.001 214.404L583.934 228.349L602.118 334.065L683.185 320.121L665.001 214.404Z"
    fill="white"
  />
<path
    d="M622.628 297.14L603.581 300.416L607.854 325.253L626.9 321.977L622.628 297.14Z"
    fill="#505F98"
  />
<path
    d="M648.983 292.602L629.937 295.878L634.209 320.715L653.256 317.439L648.983 292.602Z"
    fill="#505F98"
  />
<path
    d="M667.608 256.213L600.814 267.683L605.098 292.632L671.892 281.163L667.608 256.213Z"
    fill="#505F98"
  />
<path
    d="M662.041 226.436L595.246 237.906L596.202 243.472L662.996 232.002L662.041 226.436Z"
    fill="#505F98"
  />
<path
    d="M664.231 236.675L597.437 248.145L598.393 253.711L665.187 242.241L664.231 236.675Z"
    fill="#505F98"
  />
<path
    d="M597.569 178.969C597.569 178.969 559.758 216.934 578.74 226.579C597.723 236.224 610.079 194.489 610.079 194.489L613.08 184.998L597.569 178.969Z"
    fill="#AE6E79"
  />
<path
    opacity="0.1"
    d="M594.261 175.615L589.587 185.938C589.587 185.938 612.637 189.174 617.455 196.143L614.599 177.929L611.209 170.155L594.261 175.615Z"
    fill="black"
  />
<path
    d="M595.165 174.711L590.491 185.034C590.491 185.034 613.541 188.27 618.359 195.239L615.503 177.025L612.113 169.251L595.165 174.711Z"
    fill="#4C4981"
  />
<path
    d="M734.695 364.509L734.198 364.852L734.885 365.16L735.626 365.096L735.716 364.581L734.695 364.509Z"
    fill="#464A5F"
  />
<path
    opacity="0.1"
    d="M734.695 364.509L734.198 364.852L734.885 365.16L735.626 365.096L735.716 364.581L734.695 364.509Z"
    fill="black"
  />
<path
    d="M734.695 364.509L734.189 364.835L733.791 364.346L734.035 363.949L734.261 363.876L734.695 364.509Z"
    fill="#9C9CA1"
  />
<path
    opacity="0.1"
    d="M734.695 364.509L734.189 364.835L733.791 364.346L734.035 363.949L734.261 363.876L734.695 364.509Z"
    fill="black"
  />
<path
    d="M823.669 302.039L786.662 248.589C786.334 248.112 785.915 247.705 785.43 247.39C784.944 247.075 784.401 246.858 783.832 246.753C783.263 246.648 782.678 246.657 782.112 246.778C781.546 246.899 781.01 247.131 780.533 247.46L698.041 304.082C697.076 304.744 696.413 305.762 696.197 306.913C695.982 308.064 696.232 309.253 696.893 310.219L733.8 364.347L823.669 302.039Z"
    fill="#9C9CA1"
  />
<path
    opacity="0.1"
    d="M823.669 302.039L786.662 248.589C786.334 248.112 785.915 247.705 785.43 247.39C784.944 247.075 784.401 246.858 783.832 246.753C783.263 246.648 782.678 246.657 782.112 246.778C781.546 246.899 781.01 247.131 780.533 247.46L698.041 304.082C697.076 304.744 696.413 305.762 696.197 306.913C695.982 308.064 696.232 309.253 696.893 310.219L733.8 364.347L823.669 302.039Z"
    fill="black"
  />
<path
    d="M824.573 302.165L787.566 248.716C787.237 248.238 786.818 247.83 786.331 247.515C785.845 247.2 785.301 246.984 784.731 246.879C784.161 246.774 783.576 246.782 783.009 246.904C782.442 247.025 781.905 247.257 781.428 247.586L698.945 304.244C697.98 304.907 697.317 305.924 697.1 307.074C696.883 308.224 697.13 309.413 697.787 310.382L734.695 364.536L824.573 302.165Z"
    fill="#9C9CA1"
  />
<path
    d="M855.505 312.732L824.771 302.861L734.885 365.169L766.106 375.383C766.805 375.61 767.547 375.671 768.274 375.561C769 375.452 769.691 375.174 770.292 374.751L855.758 314.404C855.918 314.314 856.047 314.178 856.128 314.013C856.209 313.848 856.237 313.662 856.21 313.481C856.182 313.299 856.1 313.13 855.974 312.996C855.848 312.863 855.685 312.77 855.505 312.732Z"
    fill="#464A5F"
  />
<path
    opacity="0.1"
    d="M855.505 312.732L824.771 302.861L734.885 365.169L766.106 375.383C766.805 375.61 767.547 375.671 768.274 375.561C769 375.452 769.691 375.174 770.292 374.751L855.758 314.404C855.918 314.314 856.047 314.178 856.128 314.013C856.209 313.848 856.237 313.662 856.21 313.481C856.182 313.299 856.1 313.13 855.974 312.996C855.848 312.863 855.685 312.77 855.505 312.732Z"
    fill="black"
  />
<path
    d="M855.315 312.108L824.582 302.228L734.695 364.536L765.917 374.732C766.614 374.964 767.357 375.028 768.084 374.919C768.81 374.811 769.502 374.533 770.102 374.109L855.568 313.762C855.722 313.67 855.845 313.534 855.922 313.372C855.998 313.209 856.024 313.028 855.997 312.85C855.97 312.673 855.891 312.508 855.769 312.375C855.648 312.243 855.49 312.15 855.315 312.108Z"
    fill="#464A5F"
  />
<g opacity="0.1">
<path
      opacity="0.1"
      d="M810.056 299.779L807.787 296.525C807.65 296.336 807.446 296.207 807.217 296.165C806.988 296.123 806.752 296.171 806.557 296.299L803.186 298.549C802.996 298.683 802.866 298.884 802.82 299.111C802.775 299.338 802.818 299.574 802.942 299.77L805.03 302.979C805.16 303.171 805.36 303.305 805.587 303.354C805.815 303.403 806.052 303.362 806.25 303.241L809.802 301.008C809.996 300.876 810.13 300.674 810.177 300.444C810.224 300.215 810.181 299.976 810.056 299.779Z"
      fill="black"
    />
<path
      opacity="0.1"
      d="M803.999 303.973L801.721 300.728C801.585 300.539 801.381 300.41 801.152 300.368C800.923 300.326 800.686 300.374 800.492 300.502L797.129 302.771C796.939 302.903 796.806 303.103 796.759 303.33C796.712 303.557 796.754 303.794 796.876 303.991L798.964 307.2C799.094 307.393 799.293 307.53 799.52 307.58C799.747 307.631 799.985 307.592 800.185 307.471L803.746 305.238C803.847 305.173 803.933 305.087 804.001 304.988C804.068 304.888 804.115 304.776 804.138 304.659C804.162 304.541 804.162 304.419 804.138 304.302C804.114 304.184 804.067 304.072 803.999 303.973Z"
      fill="black"
    />
<path
      opacity="0.1"
      d="M797.635 308.375L795.358 305.13C795.221 304.941 795.017 304.812 794.788 304.77C794.559 304.728 794.323 304.776 794.128 304.904L790.757 307.173C790.565 307.307 790.432 307.509 790.387 307.738C790.341 307.968 790.386 308.205 790.513 308.402L792.601 311.611C792.731 311.803 792.931 311.938 793.158 311.987C793.385 312.035 793.623 311.995 793.821 311.873L797.373 309.641C797.475 309.576 797.562 309.491 797.63 309.392C797.698 309.293 797.746 309.181 797.771 309.063C797.795 308.945 797.796 308.824 797.772 308.705C797.749 308.587 797.703 308.475 797.635 308.375Z"
      fill="black"
    />
<path
      opacity="0.1"
      d="M791.191 312.84L788.913 309.586C788.776 309.4 788.574 309.273 788.347 309.231C788.12 309.189 787.886 309.235 787.692 309.36L784.321 311.638C784.131 311.772 784.001 311.973 783.955 312.2C783.91 312.427 783.953 312.662 784.077 312.858L786.165 316.067C786.294 316.259 786.491 316.393 786.716 316.444C786.942 316.494 787.178 316.457 787.376 316.339L790.937 314.097C791.037 314.031 791.122 313.946 791.189 313.848C791.255 313.749 791.302 313.638 791.325 313.521C791.349 313.404 791.349 313.284 791.326 313.167C791.303 313.05 791.257 312.939 791.191 312.84Z"
      fill="black"
    />
<path
      opacity="0.1"
      d="M784.755 317.296L782.477 314.051C782.34 313.863 782.136 313.734 781.907 313.692C781.678 313.65 781.442 313.697 781.247 313.825L777.885 316.094C777.694 316.226 777.561 316.427 777.514 316.654C777.467 316.881 777.509 317.118 777.632 317.315L779.72 320.524C779.849 320.717 780.048 320.854 780.275 320.904C780.503 320.955 780.741 320.915 780.94 320.795L784.501 318.553C784.601 318.487 784.686 318.403 784.753 318.304C784.819 318.205 784.866 318.094 784.889 317.977C784.913 317.861 784.913 317.74 784.89 317.623C784.867 317.507 784.821 317.395 784.755 317.296Z"
      fill="black"
    />
<path
      opacity="0.1"
      d="M778.599 322.16L775.769 318.128C775.739 318.084 775.701 318.045 775.656 318.015C775.611 317.986 775.56 317.965 775.507 317.955C775.454 317.945 775.4 317.945 775.347 317.957C775.294 317.968 775.244 317.989 775.2 318.02L771.06 320.813C771.014 320.842 770.975 320.88 770.944 320.925C770.914 320.97 770.892 321.02 770.881 321.073C770.87 321.126 770.87 321.181 770.881 321.234C770.891 321.287 770.912 321.338 770.942 321.383L773.537 325.369C773.596 325.461 773.689 325.525 773.796 325.549C773.902 325.572 774.014 325.553 774.106 325.495L778.481 322.784C778.534 322.754 778.579 322.713 778.614 322.664C778.649 322.615 778.673 322.558 778.685 322.499C778.696 322.44 778.694 322.379 778.679 322.32C778.664 322.261 778.637 322.207 778.599 322.16Z"
      fill="black"
    />
<path
      opacity="0.1"
      d="M772.163 326.616L769.315 322.584C769.285 322.539 769.245 322.501 769.199 322.471C769.154 322.441 769.102 322.42 769.049 322.41C768.995 322.4 768.94 322.401 768.886 322.412C768.833 322.423 768.782 322.445 768.737 322.476L764.597 325.269C764.508 325.331 764.447 325.425 764.427 325.532C764.407 325.638 764.429 325.748 764.488 325.839L767.083 329.825C767.11 329.872 767.147 329.913 767.192 329.946C767.236 329.978 767.286 330.001 767.34 330.012C767.393 330.024 767.449 330.025 767.502 330.015C767.556 330.004 767.607 329.983 767.652 329.951L772.018 327.24C772.074 327.214 772.123 327.175 772.162 327.127C772.201 327.079 772.228 327.023 772.242 326.963C772.256 326.903 772.256 326.84 772.242 326.78C772.229 326.72 772.201 326.664 772.163 326.616Z"
      fill="black"
    />
<path
      opacity="0.1"
      d="M766.459 330.566L763.63 326.571C763.566 326.484 763.471 326.425 763.365 326.406C763.259 326.388 763.149 326.411 763.06 326.472L758.92 329.256C758.829 329.318 758.766 329.413 758.745 329.521C758.723 329.629 758.743 329.741 758.803 329.834L761.397 333.82C761.458 333.91 761.551 333.973 761.657 333.997C761.762 334.02 761.873 334.003 761.966 333.947L766.341 331.235C766.402 331.207 766.454 331.164 766.494 331.111C766.535 331.059 766.562 330.997 766.573 330.931C766.585 330.866 766.581 330.798 766.561 330.735C766.541 330.671 766.506 330.614 766.459 330.566Z"
      fill="black"
    />
<path
      opacity="0.1"
      d="M760.077 334.977L757.248 330.946C757.184 330.859 757.09 330.8 756.983 330.781C756.877 330.763 756.768 330.786 756.678 330.847L752.538 333.631C752.493 333.661 752.453 333.7 752.422 333.745C752.392 333.791 752.37 333.842 752.359 333.895C752.348 333.949 752.348 334.005 752.359 334.058C752.369 334.112 752.39 334.164 752.421 334.209L755.015 338.195C755.076 338.285 755.169 338.348 755.275 338.372C755.381 338.395 755.492 338.378 755.585 338.322L759.96 335.61C760.013 335.579 760.058 335.538 760.093 335.488C760.128 335.438 760.152 335.381 760.163 335.321C760.175 335.261 760.173 335.199 760.158 335.14C760.143 335.08 760.115 335.025 760.077 334.977Z"
      fill="black"
    />
<path
      opacity="0.1"
      d="M753.894 339.226L751.065 335.195C751.035 335.15 750.996 335.111 750.951 335.082C750.906 335.052 750.856 335.031 750.803 335.021C750.75 335.011 750.696 335.012 750.643 335.023C750.59 335.034 750.54 335.055 750.496 335.086L746.356 337.879C746.31 337.909 746.271 337.947 746.24 337.991C746.209 338.036 746.188 338.086 746.177 338.139C746.166 338.192 746.166 338.247 746.176 338.3C746.187 338.353 746.208 338.404 746.238 338.449L748.832 342.435C748.892 342.527 748.985 342.591 749.091 342.615C749.198 342.639 749.309 342.619 749.402 342.562L753.777 339.85C753.829 339.82 753.875 339.779 753.91 339.73C753.945 339.681 753.969 339.625 753.98 339.565C753.991 339.506 753.99 339.445 753.975 339.386C753.96 339.328 753.932 339.273 753.894 339.226Z"
      fill="black"
    />
<path
      opacity="0.1"
      d="M747.711 343.547L744.909 339.506C744.846 339.419 744.751 339.36 744.645 339.341C744.538 339.323 744.429 339.346 744.34 339.407L740.2 342.191C740.154 342.221 740.115 342.26 740.084 342.305C740.053 342.351 740.032 342.402 740.021 342.456C740.01 342.509 740.01 342.565 740.02 342.619C740.031 342.672 740.052 342.724 740.082 342.769L742.677 346.756C742.737 346.845 742.83 346.908 742.936 346.932C743.042 346.956 743.153 346.938 743.246 346.882L747.621 344.17C747.672 344.138 747.715 344.096 747.747 344.045C747.78 343.995 747.801 343.938 747.809 343.879C747.818 343.82 747.814 343.76 747.797 343.702C747.78 343.645 747.751 343.592 747.711 343.547Z"
      fill="black"
    />
<path
      opacity="0.1"
      d="M741.529 347.823L738.699 343.791C738.669 343.746 738.631 343.708 738.586 343.678C738.541 343.648 738.49 343.628 738.437 343.618C738.384 343.607 738.33 343.608 738.277 343.619C738.224 343.63 738.174 343.652 738.13 343.683L733.99 346.458C733.944 346.487 733.905 346.525 733.874 346.57C733.844 346.614 733.822 346.665 733.811 346.718C733.8 346.771 733.8 346.825 733.811 346.879C733.821 346.932 733.842 346.982 733.872 347.027L736.467 351.013C736.526 351.105 736.619 351.17 736.725 351.193C736.832 351.217 736.944 351.198 737.036 351.14L741.411 348.428C741.461 348.398 741.504 348.358 741.537 348.31C741.57 348.263 741.593 348.209 741.604 348.151C741.615 348.094 741.614 348.036 741.601 347.979C741.588 347.922 741.564 347.869 741.529 347.823Z"
      fill="black"
    />
<path
      opacity="0.1"
      d="M805.988 293.894L803.71 290.64C803.573 290.451 803.37 290.322 803.141 290.28C802.911 290.238 802.675 290.286 802.48 290.414L799.145 292.692C798.954 292.824 798.822 293.024 798.775 293.251C798.727 293.479 798.769 293.715 798.892 293.912L800.98 297.121C801.111 297.313 801.31 297.448 801.538 297.497C801.765 297.545 802.002 297.505 802.2 297.383L805.762 295.151C805.958 295.014 806.092 294.805 806.134 294.569C806.177 294.334 806.124 294.091 805.988 293.894Z"
      fill="black"
    />
<path
      opacity="0.1"
      d="M797.084 281.031L794.806 277.759C794.67 277.572 794.468 277.445 794.241 277.403C794.014 277.361 793.78 277.408 793.586 277.533L790.214 279.802C790.024 279.934 789.891 280.134 789.844 280.361C789.797 280.588 789.839 280.825 789.961 281.022L792.049 284.231C792.179 284.425 792.378 284.561 792.605 284.611C792.832 284.662 793.07 284.623 793.27 284.502L796.831 282.269C797.027 282.137 797.163 281.933 797.21 281.702C797.257 281.47 797.212 281.23 797.084 281.031Z"
      fill="black"
    />
<path
      opacity="0.1"
      d="M799.922 298.088L797.645 294.843C797.508 294.657 797.306 294.53 797.079 294.488C796.852 294.446 796.618 294.492 796.424 294.617L793.053 296.886C792.863 297.019 792.733 297.22 792.687 297.447C792.642 297.674 792.685 297.91 792.808 298.106L794.888 301.315C795.017 301.509 795.216 301.645 795.443 301.696C795.671 301.746 795.909 301.707 796.108 301.586L799.669 299.354C799.77 299.288 799.856 299.203 799.924 299.103C799.991 299.004 800.038 298.892 800.062 298.774C800.085 298.656 800.085 298.535 800.061 298.417C800.037 298.299 799.99 298.187 799.922 298.088Z"
      fill="black"
    />
<path
      opacity="0.1"
      d="M793.559 302.491L791.281 299.245C791.144 299.057 790.941 298.928 790.711 298.886C790.482 298.844 790.246 298.892 790.051 299.019L786.689 301.261C786.496 301.393 786.361 301.596 786.314 301.825C786.267 302.054 786.311 302.293 786.436 302.491L788.524 305.7C788.655 305.892 788.854 306.026 789.082 306.075C789.309 306.124 789.546 306.083 789.744 305.962L793.306 303.729C793.501 303.597 793.637 303.393 793.685 303.161C793.732 302.93 793.687 302.689 793.559 302.491Z"
      fill="black"
    />
<path
      opacity="0.1"
      d="M787.114 306.956L784.845 303.702C784.709 303.513 784.505 303.384 784.276 303.342C784.047 303.3 783.81 303.348 783.616 303.476L780.244 305.781C780.055 305.914 779.924 306.115 779.878 306.342C779.833 306.569 779.876 306.805 780 307.001L782.088 310.21C782.219 310.402 782.418 310.536 782.646 310.585C782.873 310.634 783.11 310.594 783.308 310.472L786.861 308.239C786.964 308.174 787.053 308.088 787.122 307.987C787.191 307.886 787.238 307.772 787.262 307.652C787.286 307.532 787.285 307.408 787.259 307.288C787.234 307.169 787.184 307.056 787.114 306.956Z"
      fill="black"
    />
<path
      opacity="0.1"
      d="M791.163 285.433L788.885 282.188C788.749 282.002 788.547 281.875 788.32 281.832C788.093 281.79 787.859 281.837 787.665 281.962L784.293 284.231C784.103 284.363 783.97 284.563 783.923 284.79C783.876 285.018 783.918 285.254 784.04 285.451L786.128 288.66C786.258 288.854 786.457 288.99 786.684 289.041C786.912 289.091 787.15 289.052 787.349 288.931L790.91 286.699C791.011 286.633 791.097 286.548 791.165 286.448C791.232 286.349 791.279 286.237 791.302 286.119C791.326 286.001 791.326 285.88 791.302 285.762C791.278 285.644 791.231 285.532 791.163 285.433Z"
      fill="black"
    />
<path
      opacity="0.1"
      d="M784.8 289.844L782.522 286.59C782.385 286.401 782.181 286.273 781.952 286.23C781.723 286.188 781.487 286.236 781.292 286.364L777.93 288.606C777.739 288.738 777.606 288.938 777.559 289.166C777.512 289.393 777.554 289.629 777.677 289.826L779.765 293.035C779.895 293.227 780.095 293.362 780.322 293.411C780.55 293.46 780.787 293.419 780.985 293.297L784.546 291.065C784.737 290.933 784.87 290.732 784.917 290.505C784.964 290.278 784.922 290.041 784.8 289.844Z"
      fill="black"
    />
<path
      opacity="0.1"
      d="M778.355 294.301L776.077 291.056C775.942 290.868 775.74 290.739 775.513 290.695C775.286 290.652 775.051 290.696 774.857 290.821L771.485 293.126C771.296 293.259 771.165 293.46 771.119 293.687C771.074 293.914 771.117 294.15 771.241 294.346L773.329 297.555C773.458 297.749 773.657 297.885 773.885 297.936C774.112 297.986 774.35 297.947 774.549 297.826L778.102 295.584C778.205 295.519 778.294 295.433 778.363 295.332C778.432 295.231 778.479 295.117 778.503 294.997C778.527 294.877 778.526 294.753 778.5 294.634C778.475 294.514 778.425 294.401 778.355 294.301Z"
      fill="black"
    />
<path
      opacity="0.1"
      d="M780.678 311.412L778.4 308.167C778.265 307.979 778.063 307.85 777.837 307.807C777.61 307.763 777.374 307.808 777.18 307.932L773.835 310.21C773.646 310.343 773.515 310.544 773.47 310.771C773.424 310.998 773.468 311.234 773.591 311.43L775.643 314.639C775.772 314.83 775.969 314.965 776.195 315.016C776.42 315.066 776.656 315.028 776.854 314.91L780.416 312.669C780.516 312.604 780.602 312.52 780.669 312.421C780.737 312.323 780.784 312.212 780.808 312.095C780.833 311.978 780.834 311.858 780.811 311.741C780.789 311.623 780.744 311.512 780.678 311.412Z"
      fill="black"
    />
<path
      opacity="0.1"
      d="M774.242 315.868L771.964 312.623C771.827 312.435 771.624 312.306 771.395 312.264C771.166 312.222 770.929 312.269 770.735 312.397L767.372 314.666C767.181 314.798 767.049 314.999 767.001 315.226C766.954 315.453 766.996 315.69 767.119 315.887L769.207 319.096C769.336 319.289 769.535 319.426 769.763 319.476C769.99 319.527 770.228 319.487 770.427 319.367L773.989 317.134C774.089 317.068 774.176 316.983 774.243 316.884C774.31 316.784 774.357 316.672 774.381 316.554C774.404 316.437 774.404 316.315 774.38 316.197C774.356 316.08 774.309 315.968 774.242 315.868Z"
      fill="black"
    />
<path
      opacity="0.1"
      d="M768.086 320.732L765.257 316.7C765.227 316.655 765.188 316.617 765.143 316.587C765.098 316.557 765.048 316.537 764.995 316.527C764.942 316.517 764.887 316.517 764.834 316.528C764.782 316.539 764.732 316.561 764.687 316.592L760.547 319.385C760.502 319.414 760.462 319.452 760.432 319.497C760.401 319.542 760.38 319.592 760.369 319.645C760.358 319.698 760.358 319.753 760.368 319.806C760.379 319.859 760.399 319.909 760.43 319.954L763.024 323.941C763.053 323.987 763.09 324.027 763.134 324.059C763.179 324.09 763.229 324.112 763.282 324.124C763.335 324.136 763.39 324.137 763.444 324.127C763.497 324.117 763.548 324.097 763.593 324.067L767.969 321.355C768.021 321.326 768.066 321.285 768.102 321.236C768.137 321.186 768.161 321.13 768.172 321.071C768.183 321.011 768.181 320.95 768.166 320.892C768.151 320.833 768.124 320.779 768.086 320.732Z"
      fill="black"
    />
<path
      opacity="0.1"
      d="M762.382 324.682L759.553 320.641C759.49 320.554 759.395 320.495 759.288 320.476C759.182 320.458 759.073 320.481 758.984 320.542L754.853 323.326C754.762 323.388 754.699 323.483 754.677 323.591C754.655 323.699 754.676 323.811 754.735 323.904L757.329 327.891C757.39 327.98 757.483 328.043 757.589 328.067C757.695 328.091 757.806 328.073 757.899 328.017L762.274 325.305C762.328 325.277 762.375 325.237 762.412 325.187C762.448 325.138 762.472 325.081 762.483 325.02C762.493 324.96 762.49 324.898 762.472 324.839C762.455 324.78 762.424 324.727 762.382 324.682Z"
      fill="black"
    />
<path
      opacity="0.1"
      d="M756.001 329.093L753.171 325.061C753.108 324.974 753.013 324.915 752.907 324.897C752.8 324.878 752.691 324.901 752.602 324.962L748.462 327.746C748.416 327.775 748.377 327.813 748.346 327.858C748.316 327.903 748.294 327.953 748.283 328.006C748.272 328.059 748.272 328.114 748.283 328.167C748.293 328.22 748.314 328.271 748.344 328.316L750.938 332.311C750.999 332.401 751.092 332.464 751.198 332.487C751.304 332.511 751.415 332.493 751.508 332.437L755.883 329.726C755.936 329.695 755.981 329.653 756.016 329.603C756.052 329.553 756.076 329.496 756.087 329.436C756.098 329.376 756.096 329.314 756.081 329.255C756.066 329.196 756.039 329.141 756.001 329.093Z"
      fill="black"
    />
<path
      opacity="0.1"
      d="M749.818 333.378L746.988 329.346C746.958 329.301 746.92 329.263 746.875 329.233C746.83 329.203 746.779 329.183 746.726 329.173C746.673 329.163 746.619 329.163 746.566 329.174C746.513 329.185 746.463 329.207 746.419 329.238L742.279 331.995C742.233 332.024 742.194 332.062 742.163 332.107C742.133 332.151 742.111 332.202 742.1 332.255C742.089 332.308 742.089 332.362 742.1 332.416C742.11 332.469 742.131 332.519 742.161 332.564L744.756 336.551C744.815 336.642 744.908 336.707 745.014 336.73C745.121 336.754 745.233 336.735 745.325 336.677L749.7 333.965C749.747 333.935 749.788 333.896 749.819 333.85C749.851 333.803 749.873 333.751 749.884 333.696C749.895 333.642 749.895 333.585 749.883 333.53C749.872 333.476 749.85 333.424 749.818 333.378Z"
      fill="black"
    />
<path
      opacity="0.1"
      d="M789.319 296.371L787.041 293.126C786.905 292.939 786.703 292.812 786.476 292.77C786.249 292.728 786.015 292.775 785.821 292.9L782.449 295.178C782.26 295.311 782.129 295.512 782.084 295.739C782.039 295.966 782.082 296.202 782.205 296.398L784.293 299.607C784.424 299.797 784.622 299.93 784.847 299.978C785.072 300.027 785.307 299.988 785.505 299.869L789.066 297.636C789.167 297.571 789.253 297.486 789.321 297.386C789.388 297.286 789.435 297.175 789.458 297.057C789.482 296.939 789.482 296.818 789.458 296.7C789.434 296.582 789.387 296.47 789.319 296.371Z"
      fill="black"
    />
<path
      opacity="0.1"
      d="M782.874 300.836L780.596 297.582C780.46 297.393 780.256 297.264 780.027 297.222C779.798 297.18 779.562 297.228 779.367 297.356L776.004 299.634C775.814 299.766 775.681 299.966 775.634 300.193C775.587 300.421 775.629 300.657 775.751 300.854L777.839 304.063C777.969 304.257 778.168 304.393 778.395 304.444C778.623 304.494 778.861 304.455 779.06 304.334L782.621 302.093C782.721 302.027 782.806 301.942 782.873 301.843C782.939 301.745 782.985 301.634 783.009 301.517C783.032 301.4 783.033 301.28 783.01 301.163C782.987 301.046 782.941 300.935 782.874 300.836Z"
      fill="black"
    />
<path
      opacity="0.1"
      d="M776.447 305.292L774.17 302.047C774.033 301.858 773.829 301.73 773.6 301.688C773.371 301.645 773.135 301.693 772.94 301.821L769.569 304.09C769.379 304.224 769.248 304.425 769.203 304.652C769.158 304.879 769.201 305.114 769.324 305.31L771.413 308.519C771.542 308.713 771.741 308.849 771.968 308.9C772.196 308.95 772.434 308.911 772.633 308.791L776.185 306.549C776.285 306.484 776.372 306.4 776.439 306.301C776.506 306.203 776.554 306.092 776.578 305.975C776.602 305.858 776.603 305.738 776.581 305.621C776.559 305.503 776.513 305.392 776.447 305.292Z"
      fill="black"
    />
<path
      opacity="0.1"
      d="M770.002 309.749L767.724 306.504C767.588 306.317 767.386 306.19 767.159 306.148C766.932 306.106 766.698 306.152 766.504 306.278L763.133 308.547C762.943 308.68 762.812 308.881 762.767 309.108C762.722 309.335 762.765 309.571 762.888 309.767L764.977 313.012C765.106 313.203 765.303 313.338 765.528 313.388C765.753 313.439 765.989 313.401 766.188 313.283L769.749 311.05C769.855 310.985 769.946 310.898 770.017 310.796C770.088 310.693 770.136 310.577 770.16 310.455C770.184 310.333 770.182 310.207 770.155 310.085C770.128 309.964 770.076 309.849 770.002 309.749Z"
      fill="black"
    />
<path
      opacity="0.1"
      d="M763.892 314.612L761.063 310.58C761.033 310.535 760.994 310.497 760.949 310.467C760.904 310.437 760.854 310.417 760.801 310.407C760.748 310.397 760.693 310.397 760.64 310.408C760.588 310.42 760.537 310.441 760.493 310.472L756.353 313.265C756.263 313.326 756.2 313.419 756.178 313.526C756.156 313.632 756.177 313.743 756.236 313.834L758.83 317.83C758.859 317.875 758.897 317.915 758.942 317.945C758.987 317.976 759.037 317.997 759.09 318.008C759.143 318.019 759.198 318.02 759.251 318.009C759.304 317.999 759.354 317.978 759.399 317.947L763.774 315.236C763.827 315.206 763.872 315.165 763.907 315.116C763.943 315.067 763.967 315.01 763.978 314.951C763.989 314.892 763.987 314.831 763.972 314.772C763.957 314.713 763.93 314.659 763.892 314.612Z"
      fill="black"
    />
<path
      opacity="0.1"
      d="M758.152 318.562L755.323 314.522C755.257 314.434 755.161 314.375 755.053 314.356C754.945 314.337 754.835 314.361 754.744 314.422L750.613 317.206C750.522 317.269 750.459 317.364 750.437 317.472C750.415 317.58 750.436 317.692 750.496 317.785L753.09 321.771C753.149 321.863 753.242 321.927 753.349 321.951C753.455 321.975 753.567 321.956 753.659 321.898L758.034 319.186C758.087 319.156 758.132 319.115 758.167 319.066C758.202 319.017 758.226 318.961 758.238 318.901C758.249 318.842 758.247 318.781 758.232 318.722C758.217 318.664 758.19 318.609 758.152 318.562Z"
      fill="black"
    />
<path
      opacity="0.1"
      d="M751.77 322.955L748.941 318.915C748.876 318.827 748.779 318.768 748.672 318.749C748.564 318.731 748.453 318.754 748.362 318.815L744.222 321.599C744.133 321.663 744.072 321.758 744.05 321.866C744.028 321.973 744.048 322.084 744.105 322.178L746.708 326.164C746.767 326.256 746.86 326.32 746.967 326.344C747.074 326.368 747.185 326.349 747.278 326.291L751.644 323.579C751.698 323.551 751.746 323.511 751.783 323.463C751.82 323.414 751.845 323.358 751.857 323.298C751.869 323.238 751.868 323.176 751.853 323.117C751.838 323.057 751.81 323.002 751.77 322.955Z"
      fill="black"
    />
<path
      opacity="0.1"
      d="M745.587 327.258L742.758 323.226C742.727 323.181 742.688 323.143 742.642 323.113C742.596 323.083 742.545 323.062 742.491 323.052C742.438 323.042 742.382 323.043 742.329 323.054C742.275 323.065 742.225 323.087 742.179 323.118L738.04 325.911C737.951 325.973 737.89 326.068 737.87 326.174C737.849 326.28 737.871 326.39 737.931 326.481L740.525 330.467C740.553 330.514 740.59 330.555 740.634 330.588C740.679 330.62 740.729 330.643 740.782 330.655C740.836 330.666 740.891 330.667 740.945 330.657C740.999 330.646 741.05 330.625 741.095 330.594L745.461 327.882C745.515 327.854 745.563 327.814 745.6 327.765C745.637 327.717 745.662 327.66 745.674 327.6C745.687 327.54 745.685 327.479 745.67 327.419C745.655 327.36 745.627 327.305 745.587 327.258Z"
      fill="black"
    />
<path
      opacity="0.1"
      d="M743.635 337.653L740.806 333.622C740.742 333.535 740.647 333.475 740.541 333.457C740.435 333.438 740.325 333.462 740.236 333.522L736.096 336.306C736.05 336.336 736.011 336.374 735.981 336.418C735.95 336.463 735.928 336.513 735.918 336.566C735.907 336.619 735.906 336.674 735.917 336.727C735.927 336.78 735.948 336.831 735.979 336.876L738.573 340.871C738.634 340.961 738.727 341.024 738.832 341.048C738.938 341.071 739.049 341.053 739.142 340.998L743.517 338.286C743.57 338.255 743.616 338.213 743.651 338.164C743.686 338.114 743.71 338.057 743.721 337.997C743.732 337.936 743.73 337.875 743.715 337.816C743.701 337.756 743.673 337.701 743.635 337.653Z"
      fill="black"
    />
<path
      opacity="0.1"
      d="M737.452 341.938L734.623 337.906C734.593 337.862 734.554 337.823 734.509 337.793C734.464 337.764 734.414 337.743 734.361 337.733C734.308 337.723 734.253 337.723 734.2 337.735C734.148 337.746 734.098 337.767 734.053 337.798L729.913 340.591C729.868 340.62 729.828 340.659 729.798 340.703C729.767 340.748 729.746 340.798 729.735 340.851C729.724 340.904 729.723 340.959 729.734 341.012C729.744 341.065 729.765 341.116 729.796 341.161L732.39 345.147C732.449 345.239 732.542 345.303 732.649 345.327C732.755 345.351 732.867 345.331 732.959 345.274L737.334 342.562C737.387 342.532 737.432 342.491 737.467 342.442C737.503 342.393 737.527 342.336 737.538 342.277C737.549 342.218 737.547 342.157 737.532 342.098C737.517 342.04 737.49 341.985 737.452 341.938Z"
      fill="black"
    />
<path
      opacity="0.1"
      d="M747.16 316.32L744.448 312.524C744.363 312.406 744.235 312.326 744.092 312.301C743.948 312.275 743.801 312.307 743.68 312.388L739.775 315.019C739.714 315.059 739.662 315.111 739.621 315.171C739.581 315.232 739.552 315.3 739.538 315.371C739.524 315.442 739.524 315.516 739.538 315.587C739.552 315.659 739.581 315.727 739.621 315.787L742.062 319.538C742.1 319.6 742.15 319.654 742.209 319.697C742.268 319.739 742.334 319.769 742.405 319.785C742.476 319.801 742.549 319.803 742.621 319.79C742.692 319.777 742.76 319.75 742.821 319.71L746.952 317.116C747.02 317.079 747.08 317.029 747.128 316.969C747.176 316.908 747.21 316.838 747.23 316.764C747.249 316.689 747.253 316.611 747.241 316.535C747.229 316.459 747.202 316.386 747.16 316.32Z"
      fill="black"
    />
<path
      opacity="0.1"
      d="M740.977 320.605L738.311 316.809C738.27 316.749 738.218 316.697 738.157 316.657C738.096 316.618 738.028 316.59 737.957 316.577C737.885 316.563 737.812 316.564 737.741 316.579C737.67 316.594 737.602 316.623 737.542 316.664L733.637 319.34C733.577 319.379 733.525 319.43 733.484 319.49C733.444 319.549 733.415 319.616 733.401 319.687C733.387 319.758 733.387 319.831 733.401 319.901C733.415 319.972 733.443 320.039 733.484 320.099L735.924 323.859C736.004 323.981 736.128 324.067 736.269 324.099C736.411 324.131 736.559 324.106 736.684 324.031L740.815 321.437C740.884 321.397 740.945 321.342 740.991 321.277C741.038 321.212 741.07 321.137 741.086 321.058C741.101 320.979 741.1 320.898 741.081 320.82C741.062 320.742 741.027 320.668 740.977 320.605Z"
      fill="black"
    />
<path
      opacity="0.1"
      d="M734.794 324.89L732.128 321.084C732.042 320.966 731.914 320.886 731.771 320.861C731.628 320.836 731.48 320.867 731.359 320.949L727.454 323.579C727.394 323.619 727.341 323.671 727.301 323.731C727.26 323.792 727.232 323.86 727.217 323.931C727.203 324.003 727.203 324.076 727.217 324.148C727.232 324.219 727.26 324.287 727.301 324.347L729.741 328.099C729.779 328.161 729.829 328.214 729.888 328.257C729.947 328.299 730.014 328.329 730.085 328.345C730.155 328.361 730.229 328.363 730.3 328.35C730.372 328.337 730.44 328.31 730.501 328.271L734.632 325.676C734.696 325.637 734.751 325.585 734.794 325.523C734.837 325.462 734.868 325.392 734.883 325.318C734.898 325.245 734.898 325.169 734.883 325.095C734.868 325.021 734.838 324.951 734.794 324.89Z"
      fill="black"
    />
<path
      opacity="0.1"
      d="M728.693 329.283L725.864 325.242C725.8 325.155 725.705 325.096 725.599 325.077C725.493 325.059 725.383 325.082 725.294 325.143L721.154 327.927C721.063 327.989 721 328.084 720.978 328.192C720.956 328.3 720.977 328.412 721.037 328.505L723.631 332.492C723.692 332.581 723.785 332.645 723.89 332.668C723.996 332.692 724.107 332.674 724.2 332.618L728.575 329.906C728.63 329.879 728.678 329.839 728.716 329.79C728.753 329.741 728.778 329.684 728.789 329.624C728.801 329.563 728.798 329.501 728.781 329.442C728.764 329.383 728.734 329.328 728.693 329.283Z"
      fill="black"
    />
<path
      opacity="0.1"
      d="M801.857 287.567L799.407 284.087C799.269 283.899 799.065 283.772 798.836 283.732C798.607 283.691 798.371 283.741 798.178 283.87L788.614 290.568C788.429 290.702 788.302 290.902 788.258 291.127C788.214 291.352 788.258 291.585 788.379 291.779L790.684 295.34C790.751 295.439 790.836 295.524 790.935 295.589C791.034 295.655 791.145 295.7 791.262 295.723C791.379 295.746 791.499 295.745 791.615 295.721C791.732 295.698 791.842 295.651 791.941 295.585L801.649 288.796C801.835 288.657 801.96 288.452 801.999 288.223C802.037 287.994 801.987 287.759 801.857 287.567Z"
      fill="black"
    />
<path
      opacity="0.1"
      d="M739.386 331.407L736.385 327.167C736.355 327.122 736.315 327.083 736.269 327.054C736.223 327.024 736.171 327.004 736.117 326.994C736.063 326.985 736.008 326.987 735.954 327C735.901 327.012 735.851 327.035 735.807 327.068L725.484 334.299C725.396 334.36 725.335 334.453 725.315 334.557C725.295 334.662 725.316 334.771 725.375 334.86L728.196 339.226C728.226 339.273 728.265 339.314 728.311 339.345C728.358 339.377 728.41 339.399 728.465 339.41C728.519 339.421 728.576 339.42 728.631 339.409C728.685 339.398 728.737 339.375 728.783 339.343L739.278 331.994C739.37 331.93 739.433 331.833 739.453 331.723C739.473 331.613 739.449 331.499 739.386 331.407Z"
      fill="black"
    />
<path
      opacity="0.1"
      d="M772.226 298.983L769.46 294.934C769.398 294.845 769.304 294.784 769.197 294.764C769.091 294.743 768.981 294.765 768.891 294.825L745.967 310.3C745.877 310.361 745.814 310.455 745.792 310.561C745.77 310.668 745.791 310.778 745.849 310.87L748.679 315.209C748.709 315.256 748.748 315.296 748.794 315.328C748.841 315.36 748.893 315.381 748.947 315.392C749.002 315.403 749.059 315.403 749.114 315.392C749.168 315.38 749.22 315.358 749.266 315.326L772.118 299.562C772.163 299.531 772.201 299.491 772.231 299.446C772.261 299.4 772.282 299.349 772.292 299.295C772.302 299.241 772.301 299.186 772.29 299.132C772.279 299.079 772.257 299.028 772.226 298.983Z"
      fill="black"
    />
</g>
<path
    d="M810.661 299.887L808.383 296.633C808.247 296.444 808.043 296.315 807.814 296.273C807.585 296.231 807.348 296.279 807.154 296.407L803.791 298.685C803.601 298.817 803.468 299.017 803.421 299.244C803.374 299.471 803.416 299.708 803.538 299.905L805.626 303.114C805.755 303.308 805.955 303.444 806.182 303.494C806.409 303.545 806.647 303.506 806.847 303.385L810.408 301.143C810.507 301.078 810.593 300.993 810.659 300.894C810.726 300.795 810.772 300.684 810.796 300.568C810.819 300.451 810.819 300.331 810.796 300.214C810.773 300.097 810.727 299.986 810.661 299.887Z"
    fill="#464A5F"
  />
<path
    d="M804.569 304.082L802.291 300.836C802.154 300.65 801.952 300.523 801.725 300.481C801.499 300.439 801.264 300.485 801.07 300.61L797.699 302.879C797.508 303.011 797.375 303.212 797.328 303.439C797.281 303.666 797.323 303.903 797.446 304.1L799.534 307.309C799.663 307.502 799.862 307.639 800.089 307.689C800.317 307.74 800.555 307.7 800.754 307.58L804.315 305.347C804.416 305.281 804.503 305.196 804.57 305.097C804.637 304.997 804.684 304.885 804.708 304.767C804.731 304.65 804.731 304.528 804.707 304.41C804.683 304.293 804.636 304.181 804.569 304.082Z"
    fill="#464A5F"
  />
<path
    d="M798.241 308.493L795.963 305.247C795.827 305.059 795.623 304.93 795.394 304.888C795.165 304.846 794.928 304.894 794.734 305.021L791.371 307.299C791.181 307.431 791.048 307.632 791.001 307.859C790.954 308.086 790.996 308.323 791.118 308.52L793.206 311.729C793.337 311.921 793.537 312.055 793.764 312.104C793.991 312.153 794.228 312.112 794.427 311.991L797.988 309.758C798.089 309.692 798.175 309.607 798.242 309.508C798.31 309.408 798.357 309.296 798.38 309.178C798.404 309.061 798.404 308.939 798.38 308.821C798.356 308.704 798.309 308.592 798.241 308.493Z"
    fill="#464A5F"
  />
<path
    d="M791.787 312.949L789.509 309.695C789.373 309.509 789.171 309.381 788.944 309.339C788.717 309.297 788.483 309.344 788.289 309.469L784.917 311.747C784.818 311.814 784.733 311.9 784.668 312C784.602 312.1 784.557 312.213 784.535 312.33C784.513 312.448 784.515 312.569 784.54 312.686C784.565 312.803 784.614 312.914 784.682 313.012L786.77 316.221C786.9 316.415 787.099 316.551 787.326 316.602C787.553 316.652 787.791 316.613 787.991 316.492L791.543 314.251C791.648 314.184 791.738 314.097 791.808 313.994C791.878 313.891 791.926 313.775 791.949 313.653C791.972 313.531 791.969 313.405 791.941 313.284C791.913 313.163 791.861 313.049 791.787 312.949Z"
    fill="#464A5F"
  />
<path
    d="M785.351 317.405L783.073 314.16C782.937 313.974 782.735 313.846 782.508 313.804C782.281 313.762 782.047 313.809 781.853 313.934L778.481 316.203C778.292 316.336 778.161 316.537 778.116 316.764C778.07 316.991 778.114 317.227 778.237 317.423L780.316 320.632C780.446 320.826 780.645 320.962 780.872 321.013C781.099 321.063 781.337 321.024 781.537 320.903L785.098 318.661C785.197 318.596 785.283 318.511 785.349 318.412C785.416 318.314 785.462 318.203 785.486 318.086C785.509 317.969 785.51 317.849 785.486 317.732C785.463 317.615 785.417 317.504 785.351 317.405Z"
    fill="#464A5F"
  />
<path
    d="M779.195 322.268L776.366 318.237C776.336 318.192 776.297 318.154 776.252 318.124C776.207 318.094 776.157 318.073 776.104 318.063C776.051 318.053 775.997 318.054 775.944 318.065C775.891 318.076 775.841 318.098 775.797 318.128L771.657 320.921C771.611 320.951 771.572 320.989 771.541 321.033C771.51 321.078 771.489 321.128 771.478 321.182C771.467 321.235 771.467 321.289 771.477 321.342C771.488 321.396 771.509 321.446 771.539 321.491L774.133 325.477C774.193 325.569 774.286 325.634 774.392 325.657C774.499 325.681 774.61 325.662 774.703 325.604L779.078 322.892C779.13 322.862 779.176 322.821 779.211 322.772C779.246 322.723 779.27 322.667 779.281 322.607C779.292 322.548 779.29 322.487 779.276 322.428C779.261 322.37 779.233 322.315 779.195 322.268Z"
    fill="#464A5F"
  />
<path
    d="M772.759 326.725L769.93 322.693C769.899 322.648 769.86 322.61 769.814 322.58C769.768 322.55 769.717 322.529 769.663 322.519C769.61 322.509 769.554 322.51 769.501 322.521C769.447 322.532 769.397 322.554 769.352 322.585L765.221 325.378C765.175 325.407 765.136 325.445 765.105 325.49C765.074 325.535 765.053 325.585 765.042 325.638C765.031 325.691 765.031 325.746 765.041 325.799C765.052 325.852 765.073 325.903 765.103 325.947L767.697 329.943C767.727 329.988 767.765 330.028 767.809 330.058C767.854 330.089 767.904 330.11 767.957 330.121C768.01 330.132 768.065 330.133 768.118 330.122C768.171 330.112 768.222 330.091 768.267 330.06L772.642 327.349C772.693 327.318 772.737 327.276 772.772 327.227C772.806 327.178 772.829 327.122 772.841 327.063C772.852 327.004 772.85 326.944 772.836 326.885C772.822 326.827 772.796 326.772 772.759 326.725Z"
    fill="#464A5F"
  />
<path
    d="M767.056 330.675L764.226 326.634C764.163 326.547 764.068 326.488 763.962 326.47C763.855 326.451 763.746 326.474 763.657 326.535L759.517 329.283C759.426 329.345 759.363 329.441 759.341 329.548C759.319 329.656 759.34 329.769 759.399 329.861L761.994 333.848C762.054 333.938 762.147 334.001 762.253 334.024C762.359 334.048 762.47 334.03 762.563 333.974L766.938 331.263C766.985 331.232 767.026 331.193 767.057 331.147C767.089 331.101 767.111 331.049 767.122 330.994C767.133 330.939 767.133 330.882 767.121 330.828C767.11 330.773 767.087 330.721 767.056 330.675Z"
    fill="#464A5F"
  />
<path
    d="M760.674 335.095L757.845 331.091C757.781 331.003 757.686 330.944 757.58 330.926C757.474 330.907 757.364 330.931 757.275 330.991L753.135 333.775C753.089 333.805 753.05 333.844 753.019 333.89C752.988 333.935 752.967 333.986 752.956 334.04C752.945 334.094 752.945 334.149 752.955 334.203C752.966 334.257 752.987 334.308 753.018 334.354L755.612 338.34C755.673 338.43 755.766 338.493 755.871 338.516C755.977 338.54 756.088 338.522 756.181 338.467L760.556 335.755C760.615 335.726 760.666 335.684 760.705 335.632C760.744 335.579 760.771 335.519 760.782 335.455C760.794 335.39 760.79 335.324 760.771 335.262C760.752 335.199 760.719 335.142 760.674 335.095Z"
    fill="#464A5F"
  />
<path
    d="M754.491 339.371L751.662 335.339C751.632 335.294 751.593 335.256 751.548 335.226C751.503 335.196 751.453 335.176 751.4 335.166C751.347 335.156 751.292 335.156 751.239 335.167C751.187 335.178 751.137 335.2 751.092 335.231L746.952 338.024C746.907 338.053 746.867 338.091 746.837 338.136C746.806 338.18 746.785 338.231 746.774 338.284C746.763 338.337 746.762 338.392 746.773 338.445C746.783 338.498 746.804 338.548 746.835 338.593L749.429 342.58C749.457 342.626 749.495 342.666 749.539 342.698C749.584 342.729 749.634 342.751 749.687 342.763C749.74 342.775 749.795 342.776 749.848 342.766C749.902 342.756 749.953 342.736 749.998 342.706L754.373 339.994C754.426 339.965 754.471 339.924 754.506 339.874C754.542 339.825 754.566 339.769 754.577 339.71C754.588 339.65 754.586 339.589 754.571 339.531C754.556 339.472 754.529 339.418 754.491 339.371Z"
    fill="#464A5F"
  />
<path
    d="M748.308 343.655L745.479 339.615C745.415 339.528 745.32 339.469 745.214 339.45C745.108 339.431 744.999 339.455 744.909 339.515L740.769 342.3C740.679 342.362 740.616 342.457 740.594 342.565C740.572 342.673 740.593 342.785 740.652 342.878L743.246 346.864C743.307 346.954 743.4 347.017 743.506 347.041C743.612 347.064 743.722 347.047 743.816 346.991L748.191 344.279C748.243 344.249 748.289 344.208 748.324 344.159C748.359 344.11 748.383 344.054 748.394 343.995C748.405 343.935 748.403 343.874 748.388 343.816C748.374 343.757 748.346 343.702 748.308 343.655Z"
    fill="#464A5F"
  />
<path
    d="M742.125 347.931L739.296 343.899C739.266 343.855 739.227 343.816 739.182 343.786C739.137 343.757 739.087 343.736 739.034 343.726C738.981 343.716 738.926 343.716 738.874 343.728C738.821 343.739 738.771 343.76 738.726 343.791L734.586 346.584C734.541 346.613 734.502 346.651 734.471 346.696C734.44 346.741 734.419 346.791 734.408 346.844C734.397 346.897 734.397 346.952 734.407 347.005C734.418 347.058 734.439 347.109 734.469 347.154L737.063 351.14C737.092 351.186 737.129 351.226 737.174 351.258C737.218 351.289 737.268 351.312 737.321 351.323C737.374 351.335 737.429 351.336 737.483 351.326C737.536 351.317 737.587 351.296 737.633 351.266L742.008 348.555C742.06 348.525 742.106 348.484 742.141 348.435C742.176 348.386 742.2 348.329 742.211 348.27C742.222 348.211 742.22 348.15 742.206 348.091C742.191 348.032 742.163 347.978 742.125 347.931Z"
    fill="#464A5F"
  />
<path
    d="M806.584 294.03L804.307 290.775C804.17 290.589 803.968 290.462 803.741 290.42C803.514 290.378 803.28 290.424 803.086 290.549L799.715 292.827C799.525 292.961 799.395 293.162 799.349 293.389C799.304 293.616 799.347 293.852 799.47 294.048L801.55 297.257C801.679 297.45 801.878 297.587 802.105 297.637C802.333 297.688 802.571 297.648 802.77 297.528L806.331 295.286C806.431 295.22 806.516 295.136 806.583 295.037C806.649 294.938 806.696 294.827 806.719 294.71C806.743 294.594 806.743 294.473 806.72 294.357C806.697 294.24 806.651 294.129 806.584 294.03Z"
    fill="#464A5F"
  />
<path
    d="M797.681 281.139L795.403 277.894C795.267 277.708 795.064 277.581 794.838 277.539C794.611 277.497 794.376 277.543 794.182 277.668L790.811 279.937C790.622 280.071 790.491 280.272 790.445 280.499C790.4 280.726 790.443 280.962 790.567 281.157L792.655 284.366C792.784 284.558 792.981 284.692 793.207 284.743C793.432 284.793 793.668 284.756 793.866 284.638L797.428 282.405C797.528 282.339 797.615 282.254 797.682 282.155C797.749 282.055 797.796 281.943 797.82 281.825C797.843 281.707 797.843 281.586 797.819 281.468C797.795 281.351 797.748 281.239 797.681 281.139Z"
    fill="#464A5F"
  />
<path
    d="M800.519 298.197L798.241 294.934C798.105 294.747 797.903 294.62 797.676 294.578C797.449 294.536 797.215 294.582 797.021 294.708L793.649 296.976C793.46 297.11 793.329 297.311 793.284 297.538C793.238 297.765 793.282 298.001 793.405 298.197L795.493 301.406C795.622 301.597 795.82 301.732 796.045 301.782C796.27 301.833 796.506 301.795 796.704 301.677L800.266 299.444C800.464 299.312 800.602 299.106 800.649 298.873C800.697 298.639 800.65 298.396 800.519 298.197Z"
    fill="#464A5F"
  />
<path
    d="M794.155 302.599L791.914 299.354C791.777 299.167 791.575 299.04 791.348 298.998C791.122 298.956 790.887 299.003 790.693 299.128L787.322 301.397C787.13 301.53 786.998 301.733 786.952 301.962C786.906 302.191 786.952 302.429 787.078 302.626L789.157 305.835C789.287 306.027 789.487 306.162 789.714 306.21C789.942 306.259 790.179 306.219 790.377 306.097L793.938 303.864C794.036 303.796 794.119 303.709 794.183 303.608C794.247 303.507 794.29 303.394 794.311 303.277C794.331 303.159 794.327 303.039 794.301 302.922C794.274 302.806 794.225 302.696 794.155 302.599Z"
    fill="#464A5F"
  />
<path
    d="M787.719 307.065L785.441 303.81C785.305 303.622 785.101 303.493 784.872 303.451C784.643 303.409 784.407 303.456 784.212 303.584L780.85 305.862C780.659 305.994 780.526 306.195 780.479 306.422C780.432 306.649 780.474 306.886 780.596 307.083L782.684 310.292C782.814 310.485 783.013 310.622 783.24 310.672C783.468 310.723 783.706 310.683 783.905 310.563L787.466 308.321C787.566 308.255 787.651 308.171 787.718 308.072C787.784 307.973 787.831 307.862 787.854 307.745C787.878 307.629 787.878 307.508 787.855 307.392C787.832 307.275 787.786 307.164 787.719 307.065Z"
    fill="#464A5F"
  />
<path
    d="M791.76 285.542L789.482 282.279C789.346 282.092 789.144 281.965 788.917 281.923C788.69 281.881 788.456 281.927 788.262 282.053L784.89 284.321C784.701 284.455 784.57 284.656 784.525 284.883C784.479 285.11 784.523 285.346 784.646 285.542L786.734 288.751C786.863 288.942 787.061 289.077 787.286 289.127C787.511 289.177 787.747 289.14 787.945 289.022L791.507 286.789C791.705 286.657 791.843 286.451 791.89 286.218C791.938 285.984 791.891 285.741 791.76 285.542Z"
    fill="#464A5F"
  />
<path
    d="M785.396 289.953L783.118 286.699C782.982 286.512 782.78 286.385 782.553 286.343C782.326 286.301 782.092 286.348 781.898 286.473L778.526 288.751C778.336 288.883 778.203 289.083 778.156 289.31C778.109 289.537 778.151 289.774 778.273 289.971L780.361 293.18C780.491 293.374 780.69 293.51 780.917 293.56C781.144 293.611 781.382 293.572 781.582 293.451L785.143 291.209C785.242 291.144 785.328 291.059 785.394 290.96C785.461 290.861 785.507 290.75 785.531 290.634C785.554 290.517 785.555 290.397 785.531 290.28C785.508 290.163 785.462 290.052 785.396 289.953Z"
    fill="#464A5F"
  />
<path
    d="M778.96 294.409L776.682 291.164C776.546 290.975 776.342 290.847 776.113 290.804C775.884 290.762 775.648 290.81 775.453 290.938L772.09 293.207C771.9 293.339 771.767 293.539 771.72 293.767C771.673 293.994 771.715 294.23 771.837 294.427L773.925 297.645C774.055 297.839 774.254 297.975 774.481 298.026C774.708 298.076 774.946 298.037 775.146 297.917L778.698 295.675C778.799 295.61 778.887 295.525 778.955 295.426C779.023 295.327 779.071 295.215 779.095 295.097C779.12 294.979 779.12 294.858 779.097 294.74C779.074 294.621 779.027 294.509 778.96 294.409Z"
    fill="#464A5F"
  />
<path
    d="M781.274 311.521L778.996 308.276C778.86 308.09 778.658 307.962 778.431 307.92C778.204 307.878 777.97 307.925 777.776 308.05L774.405 310.301C774.215 310.434 774.084 310.635 774.039 310.862C773.994 311.089 774.037 311.325 774.16 311.521L776.248 314.73C776.378 314.921 776.575 315.056 776.8 315.106C777.025 315.157 777.261 315.119 777.46 315.001L781.021 312.759C781.217 312.627 781.353 312.423 781.4 312.192C781.448 311.96 781.402 311.72 781.274 311.521Z"
    fill="#464A5F"
  />
<path
    d="M774.838 315.977L772.56 312.732C772.424 312.545 772.222 312.418 771.995 312.376C771.768 312.334 771.534 312.381 771.34 312.506L767.968 314.82C767.778 314.952 767.645 315.152 767.598 315.379C767.551 315.606 767.593 315.843 767.715 316.04L769.803 319.249C769.933 319.443 770.132 319.579 770.359 319.63C770.587 319.68 770.825 319.641 771.024 319.52L774.585 317.288C774.692 317.222 774.785 317.135 774.856 317.032C774.928 316.928 774.977 316.811 775.001 316.688C775.025 316.565 775.022 316.438 774.995 316.315C774.967 316.193 774.913 316.078 774.838 315.977Z"
    fill="#464A5F"
  />
<path
    d="M768.683 320.84L765.853 316.809C765.823 316.764 765.785 316.725 765.74 316.696C765.695 316.666 765.644 316.645 765.591 316.635C765.538 316.625 765.484 316.626 765.431 316.637C765.378 316.648 765.328 316.669 765.284 316.7L761.18 319.493C761.134 319.523 761.095 319.561 761.065 319.605C761.034 319.65 761.012 319.7 761.001 319.753C760.991 319.806 760.99 319.861 761.001 319.914C761.011 319.967 761.032 320.018 761.063 320.063L763.657 324.049C763.685 324.095 763.723 324.135 763.767 324.167C763.812 324.199 763.862 324.221 763.915 324.233C763.968 324.244 764.023 324.245 764.076 324.236C764.13 324.226 764.181 324.205 764.226 324.176L768.601 321.464C768.65 321.43 768.691 321.386 768.722 321.336C768.752 321.285 768.772 321.229 768.78 321.17C768.788 321.111 768.783 321.052 768.766 320.995C768.749 320.938 768.721 320.885 768.683 320.84Z"
    fill="#464A5F"
  />
<path
    d="M762.988 324.763L760.159 320.723C760.094 320.635 759.997 320.575 759.889 320.557C759.782 320.538 759.671 320.562 759.58 320.623L755.44 323.407C755.351 323.471 755.29 323.566 755.268 323.673C755.246 323.781 755.266 323.892 755.323 323.986L757.926 327.972C757.985 328.064 758.078 328.128 758.185 328.152C758.291 328.176 758.403 328.157 758.495 328.099L762.861 325.387C762.916 325.359 762.963 325.319 763 325.271C763.037 325.222 763.063 325.165 763.075 325.106C763.087 325.046 763.086 324.984 763.071 324.924C763.055 324.865 763.027 324.81 762.988 324.763Z"
    fill="#464A5F"
  />
<path
    d="M756.597 329.211L753.768 325.17C753.704 325.083 753.609 325.024 753.503 325.005C753.397 324.987 753.288 325.01 753.198 325.071L749.058 327.855C748.968 327.917 748.905 328.012 748.883 328.12C748.861 328.228 748.882 328.34 748.941 328.433L751.535 332.42C751.596 332.509 751.689 332.573 751.795 332.596C751.901 332.62 752.011 332.602 752.105 332.546L756.48 329.834C756.535 329.807 756.583 329.767 756.62 329.718C756.657 329.669 756.682 329.612 756.694 329.552C756.705 329.491 756.702 329.429 756.685 329.37C756.669 329.311 756.638 329.256 756.597 329.211Z"
    fill="#464A5F"
  />
<path
    d="M750.423 333.486L747.621 329.455C747.591 329.41 747.552 329.372 747.507 329.342C747.462 329.312 747.412 329.291 747.359 329.281C747.306 329.271 747.252 329.272 747.199 329.283C747.146 329.294 747.096 329.316 747.052 329.346L742.912 332.14C742.821 332.2 742.759 332.294 742.737 332.4C742.715 332.507 742.735 332.618 742.794 332.709L745.388 336.695C745.448 336.787 745.541 336.852 745.647 336.875C745.754 336.899 745.865 336.88 745.958 336.822L750.333 334.11C750.385 334.079 750.429 334.037 750.462 333.987C750.496 333.936 750.517 333.879 750.526 333.82C750.535 333.76 750.53 333.699 750.512 333.641C750.494 333.584 750.464 333.531 750.423 333.486Z"
    fill="#464A5F"
  />
<path
    d="M789.916 296.488L787.647 293.234C787.511 293.045 787.307 292.917 787.078 292.875C786.849 292.832 786.612 292.88 786.418 293.008L783.046 295.286C782.857 295.42 782.726 295.621 782.681 295.848C782.635 296.075 782.679 296.31 782.802 296.506L784.89 299.715C785.021 299.908 785.22 300.042 785.448 300.091C785.675 300.14 785.912 300.099 786.11 299.978L789.663 297.745C789.762 297.679 789.848 297.595 789.914 297.496C789.981 297.397 790.027 297.286 790.051 297.169C790.074 297.052 790.074 296.932 790.051 296.815C790.028 296.699 789.982 296.587 789.916 296.488Z"
    fill="#464A5F"
  />
<path
    d="M783.48 300.945L781.202 297.7C781.067 297.512 780.866 297.383 780.639 297.339C780.412 297.296 780.177 297.34 779.982 297.465L776.61 299.743C776.421 299.876 776.29 300.077 776.245 300.304C776.199 300.531 776.243 300.767 776.366 300.963L778.454 304.172C778.583 304.363 778.781 304.498 779.006 304.548C779.231 304.599 779.467 304.561 779.665 304.443L783.227 302.201C783.326 302.136 783.412 302.051 783.478 301.952C783.545 301.853 783.591 301.742 783.615 301.626C783.638 301.509 783.638 301.389 783.615 301.272C783.592 301.155 783.546 301.044 783.48 300.945Z"
    fill="#464A5F"
  />
<path
    d="M777.044 305.401L774.739 302.165C774.603 301.976 774.399 301.847 774.17 301.805C773.941 301.763 773.704 301.811 773.51 301.939L770.219 304.199C770.029 304.331 769.896 304.531 769.849 304.758C769.802 304.985 769.844 305.222 769.966 305.419L772.054 308.628C772.184 308.822 772.383 308.958 772.61 309.009C772.837 309.059 773.075 309.02 773.275 308.899L776.836 306.666C776.933 306.597 777.015 306.51 777.079 306.408C777.142 306.307 777.184 306.195 777.203 306.077C777.223 305.959 777.218 305.839 777.191 305.723C777.164 305.607 777.114 305.498 777.044 305.401Z"
    fill="#464A5F"
  />
<path
    d="M770.599 309.857L768.321 306.612C768.185 306.426 767.983 306.299 767.756 306.257C767.529 306.215 767.295 306.261 767.101 306.386L763.729 308.655C763.54 308.789 763.409 308.99 763.364 309.217C763.318 309.444 763.362 309.68 763.485 309.876L765.573 313.084C765.702 313.276 765.9 313.41 766.125 313.461C766.35 313.511 766.586 313.474 766.784 313.356L770.346 311.123C770.447 311.057 770.533 310.972 770.6 310.873C770.668 310.773 770.715 310.661 770.738 310.543C770.762 310.425 770.762 310.304 770.738 310.186C770.714 310.069 770.667 309.957 770.599 309.857Z"
    fill="#464A5F"
  />
<path
    d="M764.452 314.721L761.623 310.689C761.592 310.644 761.553 310.605 761.507 310.575C761.461 310.546 761.41 310.525 761.356 310.515C761.302 310.505 761.247 310.505 761.194 310.517C761.14 310.528 761.09 310.55 761.044 310.581L756.904 313.374C756.814 313.435 756.752 313.528 756.73 313.635C756.708 313.741 756.728 313.852 756.787 313.943L759.381 317.939C759.411 317.985 759.45 318.024 759.496 318.055C759.541 318.086 759.592 318.107 759.646 318.118C759.7 318.129 759.755 318.129 759.809 318.118C759.863 318.108 759.914 318.087 759.96 318.056L764.326 315.344C764.379 315.315 764.425 315.275 764.461 315.226C764.497 315.177 764.522 315.121 764.534 315.062C764.546 315.003 764.545 314.941 764.531 314.882C764.517 314.823 764.49 314.768 764.452 314.721Z"
    fill="#464A5F"
  />
<path
    d="M758.748 318.671L755.919 314.639C755.889 314.594 755.851 314.556 755.806 314.526C755.761 314.496 755.71 314.476 755.657 314.466C755.604 314.456 755.55 314.456 755.497 314.467C755.444 314.478 755.394 314.5 755.35 314.531L751.237 317.315C751.146 317.377 751.083 317.472 751.061 317.58C751.039 317.688 751.06 317.8 751.119 317.893L753.714 321.88C753.774 321.969 753.867 322.033 753.973 322.056C754.079 322.08 754.19 322.062 754.283 322.006L758.658 319.294C758.709 319.262 758.751 319.22 758.784 319.169C758.816 319.119 758.838 319.062 758.846 319.003C758.855 318.944 758.851 318.884 758.834 318.826C758.817 318.769 758.788 318.716 758.748 318.671Z"
    fill="#464A5F"
  />
<path
    d="M752.367 323.091L749.537 319.05C749.472 318.962 749.376 318.903 749.268 318.885C749.16 318.866 749.05 318.89 748.959 318.951L744.828 321.735C744.737 321.797 744.674 321.892 744.652 322C744.63 322.108 744.651 322.221 744.711 322.313L747.305 326.3C747.364 326.391 747.457 326.456 747.564 326.48C747.67 326.503 747.782 326.484 747.874 326.426L752.249 323.715C752.302 323.685 752.347 323.644 752.382 323.595C752.417 323.545 752.441 323.489 752.453 323.43C752.464 323.371 752.462 323.309 752.447 323.251C752.432 323.192 752.405 323.138 752.367 323.091Z"
    fill="#464A5F"
  />
<path
    d="M746.184 327.367L743.355 323.335C743.324 323.29 743.284 323.251 743.238 323.221C743.193 323.192 743.141 323.171 743.088 323.161C743.034 323.151 742.979 323.151 742.925 323.163C742.872 323.174 742.821 323.196 742.776 323.227L738.645 326.02C738.599 326.049 738.56 326.087 738.53 326.132C738.499 326.176 738.477 326.227 738.467 326.28C738.456 326.333 738.455 326.388 738.466 326.441C738.476 326.494 738.497 326.544 738.528 326.589L741.122 330.585C741.151 330.63 741.189 330.669 741.234 330.7C741.278 330.731 741.329 330.752 741.382 330.763C741.435 330.774 741.49 330.774 741.543 330.764C741.596 330.753 741.646 330.732 741.691 330.702L746.066 327.99C746.118 327.96 746.162 327.918 746.196 327.869C746.23 327.82 746.254 327.764 746.265 327.705C746.276 327.646 746.275 327.585 746.261 327.527C746.247 327.469 746.22 327.414 746.184 327.367Z"
    fill="#464A5F"
  />
<path
    d="M744.24 337.771L741.411 333.73C741.346 333.643 741.25 333.583 741.142 333.565C741.034 333.546 740.923 333.57 740.833 333.631L736.693 336.415C736.602 336.478 736.539 336.573 736.517 336.681C736.495 336.789 736.516 336.901 736.575 336.994L739.169 340.98C739.23 341.07 739.323 341.133 739.429 341.156C739.535 341.18 739.646 341.162 739.739 341.106L744.114 338.395C744.168 338.367 744.216 338.327 744.253 338.278C744.29 338.23 744.315 338.173 744.327 338.113C744.34 338.053 744.338 337.991 744.323 337.932C744.308 337.873 744.28 337.818 744.24 337.771Z"
    fill="#464A5F"
  />
<path
    d="M738.057 342.046L735.228 338.015C735.197 337.97 735.158 337.931 735.112 337.901C735.066 337.871 735.015 337.851 734.961 337.841C734.908 337.831 734.853 337.831 734.799 337.842C734.746 337.854 734.695 337.875 734.65 337.906L730.51 340.699C730.42 340.76 730.357 340.854 730.335 340.96C730.313 341.067 730.333 341.178 730.392 341.269L732.986 345.255C733.016 345.302 733.054 345.342 733.099 345.374C733.144 345.405 733.195 345.428 733.249 345.44C733.303 345.451 733.359 345.452 733.413 345.442C733.467 345.433 733.519 345.412 733.565 345.382L737.931 342.67C737.985 342.642 738.033 342.602 738.07 342.554C738.107 342.505 738.132 342.449 738.145 342.389C738.157 342.329 738.155 342.267 738.14 342.208C738.125 342.148 738.097 342.093 738.057 342.046Z"
    fill="#464A5F"
  />
<path
    d="M747.757 316.438L745.09 312.632C745.005 312.514 744.877 312.434 744.733 312.409C744.59 312.384 744.442 312.415 744.322 312.497L740.39 315.127C740.269 315.21 740.185 315.336 740.156 315.48C740.128 315.624 740.156 315.773 740.236 315.896L742.677 319.656C742.758 319.778 742.884 319.864 743.028 319.894C743.171 319.925 743.321 319.898 743.445 319.819L747.567 317.224C747.633 317.187 747.691 317.137 747.737 317.076C747.783 317.016 747.816 316.946 747.834 316.873C747.851 316.799 747.854 316.722 747.841 316.647C747.827 316.572 747.799 316.501 747.757 316.438Z"
    fill="#464A5F"
  />
<path
    d="M741.574 320.714L738.907 316.917C738.866 316.857 738.814 316.806 738.753 316.766C738.693 316.726 738.625 316.698 738.553 316.685C738.482 316.672 738.408 316.672 738.337 316.687C738.266 316.702 738.199 316.731 738.139 316.772L734.234 319.412C734.114 319.493 734.03 319.618 734.001 319.76C733.972 319.902 734.001 320.05 734.08 320.171L736.521 323.932C736.602 324.054 736.727 324.14 736.871 324.172C737.014 324.204 737.164 324.179 737.289 324.103L741.42 321.509C741.483 321.467 741.537 321.413 741.578 321.351C741.62 321.288 741.649 321.217 741.663 321.143C741.677 321.069 741.677 320.993 741.662 320.92C741.646 320.846 741.616 320.776 741.574 320.714Z"
    fill="#464A5F"
  />
<path
    d="M735.391 324.998L732.679 321.193C732.595 321.075 732.469 320.995 732.327 320.97C732.185 320.945 732.039 320.976 731.92 321.057L728.006 323.688C727.885 323.77 727.801 323.897 727.772 324.04C727.744 324.184 727.772 324.333 727.852 324.456L730.293 328.216C730.374 328.339 730.5 328.424 730.644 328.455C730.787 328.485 730.937 328.458 731.061 328.379L735.192 325.785C735.259 325.748 735.318 325.698 735.365 325.638C735.411 325.578 735.445 325.509 735.464 325.435C735.483 325.361 735.486 325.284 735.473 325.209C735.461 325.134 735.433 325.062 735.391 324.998Z"
    fill="#464A5F"
  />
<path
    d="M729.298 329.4L726.469 325.36C726.404 325.272 726.308 325.213 726.2 325.194C726.092 325.176 725.981 325.199 725.891 325.26L721.751 328.045C721.661 328.108 721.6 328.204 721.58 328.312C721.56 328.42 721.582 328.531 721.642 328.623L724.236 332.609C724.296 332.701 724.389 332.766 724.495 332.789C724.602 332.813 724.713 332.794 724.806 332.736L729.181 330.024C729.233 329.994 729.279 329.953 729.314 329.904C729.349 329.855 729.373 329.799 729.384 329.739C729.395 329.68 729.394 329.619 729.379 329.56C729.364 329.502 729.337 329.447 729.298 329.4Z"
    fill="#464A5F"
  />
<path
    d="M802.462 287.702L800.049 284.213C799.911 284.026 799.707 283.899 799.478 283.858C799.249 283.818 799.013 283.867 798.82 283.996L789.202 290.694C789.016 290.829 788.889 291.029 788.846 291.254C788.802 291.479 788.845 291.712 788.967 291.906L791.281 295.467C791.347 295.566 791.432 295.65 791.532 295.716C791.631 295.782 791.742 295.827 791.858 295.85C791.975 295.873 792.095 295.872 792.212 295.848C792.328 295.824 792.439 295.778 792.537 295.711L802.236 288.923C802.423 288.787 802.55 288.584 802.592 288.357C802.634 288.131 802.588 287.896 802.462 287.702Z"
    fill="#464A5F"
  />
<path
    d="M739.983 331.516L736.982 327.276C736.951 327.231 736.912 327.192 736.866 327.162C736.819 327.132 736.768 327.112 736.714 327.103C736.66 327.094 736.604 327.095 736.551 327.108C736.498 327.121 736.448 327.144 736.403 327.177L726.08 334.408C725.992 334.47 725.931 334.564 725.911 334.671C725.89 334.777 725.912 334.887 725.972 334.978L728.801 339.334C728.831 339.382 728.871 339.422 728.917 339.454C728.963 339.485 729.015 339.507 729.07 339.518C729.125 339.529 729.181 339.529 729.236 339.518C729.291 339.506 729.343 339.484 729.389 339.452L739.883 332.103C739.974 332.038 740.035 331.94 740.053 331.83C740.072 331.72 740.047 331.607 739.983 331.516Z"
    fill="#464A5F"
  />
<path
    d="M772.823 299.092L770.111 295.069C770.048 294.978 769.953 294.915 769.845 294.894C769.737 294.872 769.625 294.892 769.532 294.952L746.618 310.409C746.572 310.438 746.533 310.476 746.502 310.521C746.472 310.565 746.45 310.616 746.439 310.669C746.428 310.722 746.428 310.777 746.439 310.83C746.449 310.883 746.47 310.933 746.5 310.978L749.321 315.317C749.351 315.364 749.39 315.405 749.436 315.436C749.482 315.468 749.534 315.49 749.589 315.501C749.644 315.512 749.701 315.512 749.755 315.5C749.81 315.489 749.862 315.467 749.908 315.435L772.759 299.67C772.844 299.601 772.897 299.502 772.909 299.394C772.921 299.286 772.89 299.177 772.823 299.092Z"
    fill="#464A5F"
  />
<path
    opacity="0.1"
    d="M772.931 285.28L760.746 267.572C760.409 267.08 759.891 266.741 759.305 266.629C758.719 266.517 758.113 266.642 757.619 266.975L724.056 289.51C723.808 289.677 723.597 289.892 723.432 290.141C723.268 290.39 723.155 290.669 723.098 290.962C723.042 291.255 723.044 291.556 723.105 291.848C723.165 292.141 723.282 292.418 723.45 292.665L735.87 310.879C736.037 311.126 736.251 311.338 736.501 311.502C736.75 311.666 737.03 311.779 737.323 311.835C737.616 311.89 737.918 311.887 738.21 311.826C738.502 311.764 738.779 311.645 739.025 311.476L772.353 288.416C772.597 288.249 772.806 288.035 772.967 287.786C773.129 287.538 773.24 287.26 773.293 286.968C773.347 286.677 773.343 286.378 773.281 286.088C773.218 285.798 773.1 285.523 772.931 285.28Z"
    fill="black"
  />
<path
    d="M773.492 285.388L761.307 267.68C760.968 267.19 760.45 266.853 759.865 266.741C759.28 266.629 758.674 266.753 758.179 267.084L724.661 289.637C724.412 289.802 724.199 290.016 724.033 290.264C723.867 290.513 723.753 290.792 723.695 291.086C723.638 291.379 723.64 291.681 723.7 291.974C723.76 292.266 723.878 292.544 724.047 292.791L736.43 310.987C736.597 311.235 736.812 311.447 737.061 311.611C737.311 311.775 737.59 311.888 737.883 311.943C738.177 311.999 738.478 311.996 738.77 311.934C739.062 311.872 739.339 311.753 739.585 311.584L772.931 288.525C773.174 288.356 773.381 288.141 773.541 287.891C773.701 287.642 773.81 287.364 773.862 287.073C773.914 286.781 773.908 286.483 773.844 286.194C773.781 285.904 773.661 285.631 773.492 285.388Z"
    fill="#939498"
  />
<path
    d="M849.051 314.007L823.199 305.383L740.281 362.981L765.944 371.343C766.636 371.569 767.371 371.63 768.091 371.524C768.811 371.417 769.496 371.145 770.093 370.728L849.286 315.661C849.44 315.57 849.564 315.435 849.641 315.274C849.719 315.113 849.747 314.932 849.722 314.755C849.696 314.578 849.619 314.412 849.5 314.279C849.38 314.146 849.224 314.051 849.051 314.007Z"
    fill="#505F98"
  />
</svg>
